<?xml version="1.0" standalone="no"?>
<!DOCTYPE svg PUBLIC "-//W3C//DTD SVG 1.1//EN" "http://www.w3.org/Graphics/SVG/1.1/DTD/svg11.dtd" >
<svg xmlns="http://www.w3.org/2000/svg">
<metadata>Generated by IcoMoon</metadata>
<defs>
<font id="icomoon" horiz-adv-x="1024">
<font-face units-per-em="1024" ascent="960" descent="-64" />
<missing-glyph horiz-adv-x="1024" />
<glyph unicode="&#x20;" horiz-adv-x="512" d="" />
<glyph unicode="&#xe900;" d="M592.032 911.988c12.872-2.014 25.586-4.54 38.106-7.54l-3.348-12.524-34.758 20.064zM494.708 119.774h41.626v-72.841h-41.626v72.841zM709.939 100.233l-7.741-4.475-21.849 37.84 7.738 4.475 21.852-37.84zM321.103 100.233l7.738-4.475 21.845 37.84-7.735 4.475-21.849-37.84zM847.8 241.35l-4.475-7.735-37.844 21.842 4.468 7.741 37.85-21.849zM805.482 600.607l4.468-7.745 37.844 21.852-4.468 7.738-37.844-21.845zM896.618 448.847v-41.619h-72.841v41.619h72.841zM603.72 84.637l7.113 1.898 6.881-25.658-7.11-1.908-6.885 25.668zM763.614 174.746l5.202 5.205 18.787-18.79-5.205-5.205-18.784 18.79zM857.023 332.725l1.905 7.107 25.658-6.878-1.901-7.107-25.661 6.878zM768.812 676.123l-5.202 5.209 18.784 18.784 5.205-5.205-18.787-18.787zM420.437 58.965l-7.11 1.911 6.878 25.651 7.11-1.898-6.878-25.665zM494.708 809.134h41.626v-72.837h-41.626v72.837zM350.693 722.466l-7.738-4.471-21.849 37.847 7.738 4.461 21.849-37.837zM680.349 722.466l7.738-4.471 21.852 37.847-7.741 4.461-21.849-37.837zM225.56 600.607l-4.465-7.745-37.84 21.852 4.465 7.738 37.84-21.845zM183.248 241.35l4.471-7.735 37.84 21.842-4.465 7.741-37.847-21.849zM207.261 448.847v-41.619h-72.841v41.619h72.841zM413.327 795.194l7.11 1.905 6.885-25.665-7.113-1.905-6.881 25.665zM243.442 694.907l5.202 5.205 18.784-18.784-5.202-5.209-18.784 18.787zM146.459 523.114l1.901 7.113 25.661-6.885-1.905-7.107-25.658 6.878zM858.928 516.239l-1.905 7.107 25.661 6.885 1.901-7.113-25.658-6.878zM148.361 325.847l-1.901 7.107 25.658 6.878 1.905-7.107-25.661-6.878zM248.644 155.955l-5.205 5.199 18.787 18.79 5.199-5.202-18.78-18.787zM610.833 769.533l-7.113 1.905 6.885 25.665 7.11-1.905-6.881-25.665zM867.011 474.528l-1.041 7.291 26.293 3.758 1.048-7.287-26.3-3.761zM138.772 370.487l-1.041 7.294 26.303 3.755 1.041-7.287-26.303-3.761zM798.843 641.188l-4.485 5.837 21.060 16.193 4.489-5.84-21.064-16.189zM215.62 192.857l-4.485 5.833 21.064 16.189 4.485-5.833-21.064-16.189zM842.667 564.716l-2.908 6.762 24.405 10.493 2.901-6.758-24.399-10.496zM166.878 274.091l-2.901 6.758 24.399 10.496 2.908-6.765-24.405-10.489zM733.204 707.891l-5.864 4.461 16.097 21.139 5.861-4.454-16.094-21.146zM287.604 122.583l-5.857 4.451 16.097 21.135 5.857-4.458-16.097-21.129zM653.496 754.633l-6.81 2.796 10.083 24.579 6.813-2.796-10.086-24.579zM374.272 74.059l-6.813 2.792 10.086 24.579 6.81-2.792-10.083-24.579zM568.788 778.561l-7.287 1.027 3.717 26.307 7.287-1.031-3.717-26.303zM465.828 50.166l-7.287 1.038 3.717 26.303 7.287-1.031-3.717-26.31zM467.695 779.343l-7.287-1.068-3.85 26.289 7.274 1.068 3.864-26.289zM574.488 51.507l-7.277-1.065-3.86 26.286 7.287 1.068 3.85-26.289zM384.734 757.576l-6.806-2.782-10.059 24.596 6.816 2.785 10.049-24.6zM663.173 76.684l-6.816-2.792-10.049 24.596 6.81 2.785 10.056-24.59zM304.684 713.090l-5.871-4.441-16.022 21.193 5.874 4.441 16.019-21.193zM748.247 126.222l-5.871-4.434-16.015 21.193 5.874 4.434 16.012-21.193zM238.954 649.885l-4.54-5.792-20.9 16.408 4.547 5.786 20.893-16.401zM817.534 195.567l-4.547-5.789-20.896 16.404 4.543 5.792 20.9-16.408zM189.689 567.808l-2.833-6.793-24.521 10.22 2.826 6.799 24.528-10.226zM868.71 284.826l-2.83-6.789-24.528 10.223 2.833 6.786 24.525-10.22zM165.236 482.83l-1.065-7.284-26.293 3.837 1.065 7.281 26.293-3.833zM893.16 376.678l-1.062-7.281-26.296 3.83 1.068 7.287 26.289-3.837zM531.316 476.706l-14.831 151.112h-1.939l-15.35-151.279c-20.248-6.816-34.843-25.955-34.843-48.5 0-15.937 7.291-30.167 18.712-39.557l-128.331-222.232 10.561-6.093 128.058 221.764c6.707-3.229 14.227-5.038 22.17-5.038 28.245 0 51.156 22.9 51.156 51.156 0 0.751-0.017 1.498-0.058 2.246l213.255 143.712-0.969 1.676-226.284-112.415c-5.799 6.11-13.097 10.786-21.306 13.449v0zM515.523 465.971c20.944 0 37.932-16.988 37.932-37.936s-16.992-37.929-37.932-37.929c-20.948 0-37.936 16.985-37.936 37.929 0 20.948 16.988 37.936 37.936 37.936v0zM603.327 883.121l-126.14 72.827v-39.503c-252.655-19.555-451.574-230.748-451.574-488.414 0-270.572 219.334-489.912 489.905-489.912 270.565 0 489.895 219.344 489.902 489.912h-68.799c0-232.585-188.542-421.106-421.103-421.106-232.571 0-421.103 188.529-421.103 421.106 0 219.641 168.165 399.981 382.771 419.345v-37.086l126.14 72.83zM621.889 873.67l-9.574-35.717c-12.977 3.055-26.184 5.506-39.591 7.335l49.166 28.382zM654.466 897.939c33.304-9.83 65.12-23.112 95.058-39.421l-34.423-59.621c-24.764 13.367-51.016 24.317-78.445 32.546l17.811 66.495zM771.318 845.906c29.382-18.026 56.713-39.072 81.579-62.693l-48.674-48.667c-20.596 19.405-43.148 36.765-67.328 51.743l34.423 59.617zM870.694 765.406c23.617-24.866 44.667-52.193 62.693-81.579l-59.628-34.423c-14.971 24.183-32.328 46.735-51.729 67.328l48.664 48.674zM945.981 662.019c16.305-29.935 29.6-61.744 39.427-95.048l-66.509-17.814c-8.226 27.43-19.176 53.688-32.526 78.452l59.607 34.41zM991.915 542.645c7.875-32.853 12.469-55.999 13.35-91.054h-68.84c-0.843 28.897-4.618 46.087-11.011 73.236l66.502 17.818z" />
<glyph unicode="&#xe901;" d="M228.028 657.391h177.951v-13.684h-177.951v13.684z" />
<glyph unicode="&#xe902;" d="M317.003 657.391h88.972v-13.684h-88.972v13.684z" />
<glyph unicode="&#xe903;" d="M254.075 788.429h125.856v-106.776h-125.856v106.776z" />
<glyph unicode="&#xe904;" d="M317.010 788.429h62.921v-106.776h-62.921v106.776z" />
<glyph unicode="&#xe905;" d="M250.972 790.105h132.058v-18.913h-132.058v18.913z" />
<glyph unicode="&#xe906;" d="M317.010 790.105h66.024v-18.913h-66.024v18.913z" />
<glyph unicode="&#xe907;" d="M261.318 762.464h42.868v-19.446h-42.868v19.446z" />
<glyph unicode="&#xe908;" d="M296.503 759.975h4.553v-14.466h-4.553v14.466z" />
<glyph unicode="&#xe909;" d="M288.365 759.975h4.553v-14.466h-4.553v14.466z" />
<glyph unicode="&#xe90a;" d="M279.965 759.975h4.553v-14.466h-4.553v14.466z" />
<glyph unicode="&#xe90b;" d="M272.261 759.975h4.56v-14.466h-4.56v14.466z" />
<glyph unicode="&#xe90c;" d="M264.458 759.975h4.55v-14.466h-4.55v14.466z" />
<glyph unicode="&#xe90d;" d="M216.351 681.547h201.301v-24.958h-201.301v24.958z" />
<glyph unicode="&#xe90e;" d="M317.003 681.547h100.649v-24.958h-100.649v24.958z" />
<glyph unicode="&#xe90f;" d="M367.329 849.033h86.559v-56.364h-86.559v56.364z" />
<glyph unicode="&#xe910;" d="M410.607 849.033h43.281v-56.364h-43.281v56.364z" />
<glyph unicode="&#xe911;" d="M403.562 809.578h14.090v-152.986h-14.090v152.986z" />
<glyph unicode="&#xe912;" d="M410.607 809.578h7.045v-152.986h-7.045v152.986z" />
<glyph unicode="&#xe913;" d="M375.381 842.793h70.455v-43.882h-70.455v43.882z" />
<glyph unicode="&#xe914;" d="M410.607 842.793h35.226v-43.882h-35.226v43.882z" />
<glyph unicode="&#xe915;" d="M384.761 828.071h8.281c2.987 0 4.205-0.259 4.205-2.505 0-2.761-9.199-10.206-12.189-12.199v-6.209h19.36v6.434h-7.759c2.29 2.058 7.759 6.994 7.759 12.087 0 5.168-2.659 8.861-8.424 8.861-5.321 0-8.202-0.444-11.233-1.109v-5.359zM407.221 808.015c0-0.515 0.372-0.857 0.891-0.857h4.171c0.519 0 0.928 0.184 0.928 0.857v4.318c0 0.591-0.263 0.925-0.928 0.925h-4.171c-0.591 0-0.891-0.365-0.891-0.925v-4.318zM407.221 821.497c0-0.515 0.372-0.853 0.891-0.853h4.171c0.519 0 0.928 0.184 0.928 0.853v4.318c0 0.591-0.263 0.922-0.928 0.922h-4.171c-0.591 0-0.891-0.365-0.891-0.922v-4.318zM416.393 814.251c0-4.431 2.324-7.093 7.124-7.093h6.055c4.431 0 6.874 2.7 6.874 7.093v12.831c0 3.837-1.481 7.086-6.83 7.086h-6.059c-4.618 0-7.165-2.656-7.165-7.455v-12.462zM423.554 815.763v9.841c0 0.478-0.072 2.137 1.85 2.137h2.103c1 0 1.772-0.44 1.772-2.137v-9.882c0-1.983-0.847-2.133-2.065-2.133h-1.55c-0.819 0.003-2.109 0.113-2.109 2.174z" />
<glyph unicode="&#xe916;" d="M410.607 807.158h1.683c0.519 0 0.925 0.184 0.925 0.857v4.318c0 0.591-0.259 0.925-0.925 0.925h-1.683v-6.1zM410.607 820.644h1.683c0.519 0 0.925 0.191 0.925 0.857v4.321c0 0.584-0.259 0.925-0.925 0.925h-1.683v-6.103zM416.393 814.251c0-4.431 2.324-7.093 7.124-7.093h6.055c4.437 0 6.878 2.7 6.878 7.093v12.831c0 3.837-1.481 7.086-6.837 7.086h-6.055c-4.625 0-7.171-2.656-7.171-7.455l0.007-12.462zM423.561 815.763v9.841c0 0.485-0.079 2.137 1.847 2.137h2.109c0.997 0 1.772-0.44 1.772-2.137v-9.875c0-1.99-0.85-2.137-2.072-2.137h-1.55c-0.823 0-2.106 0.109-2.106 2.171z" />
<glyph unicode="&#xe917;" d="M671.986 824.078h77.001v-77.001h-77.001v77.001z" />
<glyph unicode="&#xe918;" d="M710.489 824.078h38.496v-77.001h-38.496v77.001z" />
<glyph unicode="&#xe919;" d="M670.085 825.289h80.797v-13.643h-80.797v13.643z" />
<glyph unicode="&#xe91a;" d="M710.489 825.289h40.393v-13.643h-40.393v13.643z" />
<glyph unicode="&#xe91b;" d="M676.861 803.543h26.228v-11.892h-26.228v11.892z" />
<glyph unicode="&#xe91c;" d="M698.382 802.021h2.778v-8.851h-2.778v8.851z" />
<glyph unicode="&#xe91d;" d="M693.408 802.021h2.782v-8.851h-2.782v8.851z" />
<glyph unicode="&#xe91e;" d="M688.265 802.021h2.792v-8.851h-2.792v8.851z" />
<glyph unicode="&#xe91f;" d="M683.561 802.021h2.782v-8.851h-2.782v8.851z" />
<glyph unicode="&#xe920;" d="M678.775 802.021h2.785v-8.851h-2.785v8.851z" />
<glyph unicode="&#xe921;" d="M660.432 746.708h100.106v-84.937h-100.106v84.937z" />
<glyph unicode="&#xe922;" d="M710.489 746.708h50.053v-84.937h-50.053v84.937z" />
<glyph unicode="&#xe923;" d="M657.964 748.039h105.042v-15.039h-105.042v15.039z" />
<glyph unicode="&#xe924;" d="M710.489 748.039h52.518v-15.039h-52.518v15.039z" />
<glyph unicode="&#xe925;" d="M666.191 726.054h34.106v-15.469h-34.106v15.469z" />
<glyph unicode="&#xe926;" d="M694.18 724.074h3.625v-11.513h-3.625v11.513z" />
<glyph unicode="&#xe927;" d="M687.712 724.074h3.628v-11.513h-3.628v11.513z" />
<glyph unicode="&#xe928;" d="M681.028 724.074h3.625v-11.513h-3.625v11.513z" />
<glyph unicode="&#xe929;" d="M674.898 724.074h3.628v-11.513h-3.628v11.513z" />
<glyph unicode="&#xe92a;" d="M668.689 724.074h3.625v-11.513h-3.625v11.513z" />
<glyph unicode="&#xe92b;" d="M776.95 845.145h13.298v-8.141h-13.298v8.141z" />
<glyph unicode="&#xe92c;" d="M762.88 845.175h18.541v-191.543h-18.541v191.543z" />
<glyph unicode="&#xe92d;" d="M772.154 845.175h9.264v-191.543h-9.264v191.543z" />
<glyph unicode="&#xe92e;" d="M647.472 661.927h117.627v-8.291h-137.097z" />
<glyph unicode="&#xe92f;" d="M801.83 657.852c0-16.389-13.286-29.676-29.676-29.676s-29.676 13.286-29.676 29.676c0 16.389 13.286 29.676 29.676 29.676s29.676-13.286 29.676-29.676z" />
<glyph unicode="&#xe930;" d="M772.154 687.527c16.391 0 29.669-13.288 29.669-29.679 0-16.384-13.285-29.672-29.669-29.672v59.351z" />
<glyph unicode="&#xe931;" d="M783.838 657.852c0-6.453-5.231-11.684-11.684-11.684s-11.684 5.231-11.684 11.684c0 6.453 5.231 11.684 11.684 11.684s11.684-5.231 11.684-11.684z" />
<glyph unicode="&#xe932;" d="M772.154 669.532c6.448 0 11.677-5.229 11.677-11.684 0-6.451-5.226-11.68-11.677-11.68v23.364z" />
<glyph unicode="&#xe933;" d="M792.477 849.937h41.499c2.772 0 5.041-2.266 5.041-5.038v-7.66c0-2.775-2.27-5.038-5.041-5.038h-41.499c-2.772 0-5.038 2.266-5.038 5.038v7.66c0 2.775 2.266 5.038 5.038 5.038z" />
<glyph unicode="&#xe934;" d="M839.018 841.066v-3.823c0-2.775-2.27-5.045-5.041-5.045h-41.499c-2.772 0-5.038 2.27-5.038 5.045v3.823h51.579z" />
<glyph unicode="&#xe935;" d="M246.269 255.433h181.047v-153.593h-181.047v153.593z" />
<glyph unicode="&#xe936;" d="M336.794 255.433h90.515v-153.597h-90.515v153.597z" />
<glyph unicode="&#xe937;" d="M241.801 257.847h189.976v-27.208h-189.976v27.208z" />
<glyph unicode="&#xe938;" d="M336.794 257.84h94.983v-27.201h-94.983v27.201z" />
<glyph unicode="&#xe939;" d="M256.693 218.088h61.669v-27.979h-61.669v27.979z" />
<glyph unicode="&#xe93a;" d="M307.299 214.501h6.55v-20.808h-6.55v20.808z" />
<glyph unicode="&#xe93b;" d="M295.598 214.501h6.554v-20.808h-6.554v20.808z" />
<glyph unicode="&#xe93c;" d="M283.508 214.501h6.554v-20.808h-6.554v20.808z" />
<glyph unicode="&#xe93d;" d="M272.435 214.501h6.547v-20.808h-6.547v20.808z" />
<glyph unicode="&#xe93e;" d="M261.199 214.501h6.547v-20.808h-6.547v20.808z" />
<glyph unicode="&#xe93f;" d="M333.121 179.514l38.335 26.293h64.416l37.516-26.293-17.070-73.871-52.654-52.657-52.651 52.657z" />
<glyph unicode="&#xe940;" d="M403.255 205.807h32.618l37.516-26.293-17.070-73.871-52.654-52.657-0.41 0.416z" />
<glyph unicode="&#xe941;" d="M345.354 173.657l31.655 22.245h53.169l30.969-22.245-14.087-62.484-43.469-44.534-43.469 44.534z" />
<glyph unicode="&#xe942;" d="M403.255 195.901h26.928l30.966-22.245-14.087-62.484-43.469-44.534-0.338 0.348z" />
<glyph unicode="&#xe943;" d="M414.768 544.73h234.817v-199.233h-234.817v199.233z" />
<glyph unicode="&#xe944;" d="M532.186 544.73h117.405v-199.233h-117.405v199.233z" />
<glyph unicode="&#xe945;" d="M408.972 547.857h246.415v-35.29h-246.415v35.29z" />
<glyph unicode="&#xe946;" d="M532.186 547.857h123.201v-35.29h-123.201v35.29z" />
<glyph unicode="&#xe947;" d="M428.288 496.285h79.985v-36.284h-79.985v36.284z" />
<glyph unicode="&#xe948;" d="M493.923 491.639h8.503v-26.996h-8.503v26.996z" />
<glyph unicode="&#xe949;" d="M478.747 491.639h8.503v-26.996h-8.503v26.996z" />
<glyph unicode="&#xe94a;" d="M463.073 491.639h8.499v-26.996h-8.499v26.996z" />
<glyph unicode="&#xe94b;" d="M448.707 491.639h8.503v-26.996h-8.503v26.996z" />
<glyph unicode="&#xe94c;" d="M434.135 491.639h8.503v-26.996h-8.503v26.996z" />
<glyph unicode="&#xe94d;" d="M623.421 562.439c4.219 0.84 7.554 1.225 12.213-2.243 2.557-0.423 14.534-1.188 14.152-2.447l-3.191-10.435c-0.352-1.14-10.663-0.061-11.609-1.027-1.922-1.959-5.127-3.297-7.55-3.297h-35.249c-0.498-0.116-1.027-0.188-1.56-0.188h-35.68c-8.632 0-6.707 8.434 1.881 9.39l33.802 3.758c0.099 0.010 0.205 0 0.304-0.007 9.957 2.188 22.371 4.482 32.488 6.496z" />
<glyph unicode="&#xe94e;" d="M600.784 536.603l25.245 17.76c2.553 1.795 6.117 1.181 7.916-1.379v0c1.799-2.56 1.181-6.124-1.379-7.922l-25.245-17.76c-2.557-1.795-6.113-1.174-7.912 1.382v0c-1.809 2.55-1.184 6.117 1.376 7.919z" />
<glyph unicode="&#xe94f;" d="M632.914 567.071h37.905v-29.942h-37.905v29.942z" />
<glyph unicode="&#xe950;" d="M632.914 552.462h37.905v-15.333h-37.905v15.333z" />
<glyph unicode="&#xe951;" d="M623.421 326.758c4.219-0.84 7.554-1.225 12.213 2.243 2.557 0.42 14.534 1.184 14.152 2.447l-3.191 10.441c-0.352 1.14-10.663 0.051-11.609 1.024-1.922 1.959-5.127 3.29-7.55 3.29h-35.249c-0.498 0.126-1.027 0.195-1.56 0.195h-35.68c-8.632 0-6.707-8.441 1.881-9.393l33.802-3.755c0.099-0.014 0.205 0 0.304 0.007 9.957-2.188 22.371-4.485 32.488-6.499z" />
<glyph unicode="&#xe952;" d="M600.784 352.601l25.245-17.76c2.553-1.802 6.117-1.181 7.916 1.379v0c1.799 2.557 1.181 6.117-1.379 7.916l-25.245 17.756c-2.557 1.806-6.113 1.184-7.912-1.376v0c-1.809-2.56-1.184-6.124 1.376-7.916z" />
<glyph unicode="&#xe953;" d="M632.914 352.065h37.905v-29.935h-37.905v29.935z" />
<glyph unicode="&#xe954;" d="M632.914 352.065h37.905v-15.326h-37.905v15.326z" />
<glyph unicode="&#xe955;" d="M681.028 253.266h67.594v-57.347h-67.594v57.347z" />
<glyph unicode="&#xe956;" d="M714.827 253.266h33.795v-57.347h-33.795v57.347z" />
<glyph unicode="&#xe957;" d="M679.359 254.167h70.922v-10.155h-70.922v10.155z" />
<glyph unicode="&#xe958;" d="M714.827 254.167h35.458v-10.155h-35.458v10.155z" />
<glyph unicode="&#xe959;" d="M684.916 239.322h23.016v-10.445h-23.016v10.445z" />
<glyph unicode="&#xe95a;" d="M703.809 237.991h2.447v-7.776h-2.447v7.776z" />
<glyph unicode="&#xe95b;" d="M699.443 237.991h2.444v-7.776h-2.444v7.776z" />
<glyph unicode="&#xe95c;" d="M694.927 237.991h2.447v-7.776h-2.447v7.776z" />
<glyph unicode="&#xe95d;" d="M690.797 237.991h2.444v-7.776h-2.444v7.776z" />
<glyph unicode="&#xe95e;" d="M686.595 237.991h2.447v-7.776h-2.447v7.776z" />
<glyph unicode="&#xe95f;" d="M773.571 253.266h67.598v-57.347h-67.598v57.347z" />
<glyph unicode="&#xe960;" d="M807.373 253.266h33.792v-57.347h-33.792v57.347z" />
<glyph unicode="&#xe961;" d="M771.908 254.167h70.922v-10.155h-70.922v10.155z" />
<glyph unicode="&#xe962;" d="M807.373 254.167h35.458v-10.155h-35.458v10.155z" />
<glyph unicode="&#xe963;" d="M777.462 239.322h23.026v-10.445h-23.026v10.445z" />
<glyph unicode="&#xe964;" d="M796.361 237.991h2.444v-7.776h-2.444v7.776z" />
<glyph unicode="&#xe965;" d="M791.992 237.991h2.444v-7.776h-2.444v7.776z" />
<glyph unicode="&#xe966;" d="M787.476 237.991h2.444v-7.776h-2.444v7.776z" />
<glyph unicode="&#xe967;" d="M783.343 237.991h2.447v-7.776h-2.447v7.776z" />
<glyph unicode="&#xe968;" d="M779.148 237.991h2.447v-7.776h-2.447v7.776z" />
<glyph unicode="&#xe969;" d="M773.571 175.821h67.598v-57.354h-67.598v57.354z" />
<glyph unicode="&#xe96a;" d="M807.373 175.821h33.792v-57.354h-33.792v57.354z" />
<glyph unicode="&#xe96b;" d="M771.908 176.719h70.922v-10.158h-70.922v10.158z" />
<glyph unicode="&#xe96c;" d="M807.373 176.719h35.458v-10.158h-35.458v10.158z" />
<glyph unicode="&#xe96d;" d="M777.462 161.874h23.026v-10.441h-23.026v10.441z" />
<glyph unicode="&#xe96e;" d="M796.361 160.532h2.444v-7.762h-2.444v7.762z" />
<glyph unicode="&#xe96f;" d="M791.992 160.532h2.444v-7.762h-2.444v7.762z" />
<glyph unicode="&#xe970;" d="M787.476 160.532h2.444v-7.762h-2.444v7.762z" />
<glyph unicode="&#xe971;" d="M783.343 160.532h2.447v-7.762h-2.447v7.762z" />
<glyph unicode="&#xe972;" d="M779.148 160.532h2.447v-7.762h-2.447v7.762z" />
<glyph unicode="&#xe973;" d="M681.028 175.821h67.594v-57.354h-67.594v57.354z" />
<glyph unicode="&#xe974;" d="M714.827 175.821h33.795v-57.354h-33.795v57.354z" />
<glyph unicode="&#xe975;" d="M679.359 176.719h70.922v-10.158h-70.922v10.158z" />
<glyph unicode="&#xe976;" d="M714.827 176.719h35.458v-10.158h-35.458v10.158z" />
<glyph unicode="&#xe977;" d="M684.916 161.874h23.016v-10.441h-23.016v10.441z" />
<glyph unicode="&#xe978;" d="M703.809 160.532h2.447v-7.762h-2.447v7.762z" />
<glyph unicode="&#xe979;" d="M699.443 160.532h2.444v-7.762h-2.444v7.762z" />
<glyph unicode="&#xe97a;" d="M694.927 160.532h2.447v-7.762h-2.447v7.762z" />
<glyph unicode="&#xe97b;" d="M690.797 160.532h2.444v-7.762h-2.444v7.762z" />
<glyph unicode="&#xe97c;" d="M686.595 160.532h2.447v-7.762h-2.447v7.762z" />
<glyph unicode="&#xe97d;" d="M672.573 118.583h176.896v-12.592h-176.896v12.592z" />
<glyph unicode="&#xe97e;" d="M672.573 112.285h176.896v-6.298h-176.896v6.298z" />
<glyph unicode="&#xe97f;" d="M672.573 196.202h176.896v-12.595h-176.896v12.595z" />
<glyph unicode="&#xe980;" d="M672.573 189.904h176.896v-6.294h-176.896v6.294z" />
<glyph unicode="&#xe981;" d="M661.105 262.171h12.592v-184.777h-12.592v184.777z" />
<glyph unicode="&#xe982;" d="M667.399 262.171h6.298v-184.777h-6.298v184.777z" />
<glyph unicode="&#xe983;" d="M848.36 262.171h12.588v-184.777h-12.588v184.777z" />
<glyph unicode="&#xe984;" d="M854.654 262.171h6.298v-184.777h-6.298v184.777z" />
<glyph unicode="&#xe985;" d="M754.732 262.171h12.592v-184.777h-12.592v184.777z" />
<glyph unicode="&#xe986;" d="M761.030 262.171h6.298v-184.777h-6.298v184.777z" />
<glyph unicode="&#xe987;" d="M110.442 452.588h169.82c21.757 0 39.557-17.794 39.557-39.554v-0.007c0-21.753-17.801-39.561-39.557-39.561h-169.82c-21.76 0-39.554 17.807-39.554 39.561v0.007c0 21.76 17.794 39.554 39.554 39.554z" />
<glyph unicode="&#xe988;" d="M319.823 413.027c0-21.753-17.801-39.561-39.557-39.561h-169.824c-21.753 0-39.554 17.807-39.554 39.561h248.934z" />
<glyph unicode="&#xe989;" d="M111.435 446.201h167.83c18.241 0 33.164-14.927 33.164-33.164v-0.007c0-18.244-14.923-33.164-33.164-33.164h-167.83c-18.237 0-33.161 14.92-33.161 33.164v0.007c0.003 18.241 14.927 33.164 33.161 33.164z" />
<glyph unicode="&#xe98a;" d="M312.433 413.027c0-18.241-14.923-33.161-33.164-33.161h-167.834c-18.237 0-33.161 14.92-33.161 33.161h234.158z" />
<glyph unicode="&#xe98b;" d="M135.451 413.030c0-11.443-9.276-20.719-20.719-20.719s-20.719 9.276-20.719 20.719c0 11.443 9.276 20.719 20.719 20.719s20.719-9.276 20.719-20.719z" />
<glyph unicode="&#xe98c;" d="M114.732 433.746c11.441 0 20.712-9.274 20.712-20.719 0-11.438-9.271-20.712-20.712-20.712v41.431z" />
<glyph unicode="&#xe98d;" d="M296.697 413.030c0-11.443-9.276-20.719-20.719-20.719s-20.719 9.276-20.719 20.719c0 11.443 9.276 20.719 20.719 20.719s20.719-9.276 20.719-20.719z" />
<glyph unicode="&#xe98e;" d="M275.985 433.746c11.438 0 20.709-9.274 20.709-20.719 0-11.438-9.271-20.712-20.709-20.712v41.431z" />
<glyph unicode="&#xe98f;" d="M215.811 413.030c0-11.443-9.276-20.719-20.719-20.719s-20.719 9.276-20.719 20.719c0 11.443 9.276 20.719 20.719 20.719s20.719-9.276 20.719-20.719z" />
<glyph unicode="&#xe990;" d="M195.092 433.746c11.441 0 20.722-9.274 20.722-20.719 0-11.438-9.281-20.712-20.722-20.712v41.431z" />
<glyph unicode="&#xe991;" d="M108.616 524.36h84.166v-71.407h-84.166v71.407z" />
<glyph unicode="&#xe992;" d="M150.702 524.36h42.080v-71.407h-42.080v71.407z" />
<glyph unicode="&#xe993;" d="M106.544 525.479h88.313v-12.646h-88.313v12.646z" />
<glyph unicode="&#xe994;" d="M150.702 525.479h44.155v-12.646h-44.155v12.646z" />
<glyph unicode="&#xe995;" d="M113.463 506.993h28.665v-13.008h-28.665v13.008z" />
<glyph unicode="&#xe996;" d="M136.987 505.33h3.041v-9.677h-3.041v9.677z" />
<glyph unicode="&#xe997;" d="M131.553 505.33h3.041v-9.677h-3.041v9.677z" />
<glyph unicode="&#xe998;" d="M125.932 505.33h3.048v-9.677h-3.048v9.677z" />
<glyph unicode="&#xe999;" d="M120.781 505.33h3.048v-9.677h-3.048v9.677z" />
<glyph unicode="&#xe99a;" d="M115.558 505.33h3.048v-9.677h-3.048v9.677z" />
<glyph unicode="&#xe99b;" d="M197.929 524.36h84.159v-71.407h-84.159v71.407z" />
<glyph unicode="&#xe99c;" d="M240.009 524.36h42.080v-71.407h-42.080v71.407z" />
<glyph unicode="&#xe99d;" d="M195.85 525.479h88.313v-12.646h-88.313v12.646z" />
<glyph unicode="&#xe99e;" d="M240.009 525.479h44.158v-12.646h-44.158v12.646z" />
<glyph unicode="&#xe99f;" d="M202.772 506.993h28.665v-13.008h-28.665v13.008z" />
<glyph unicode="&#xe9a0;" d="M226.294 505.33h3.048v-9.677h-3.048v9.677z" />
<glyph unicode="&#xe9a1;" d="M220.856 505.33h3.045v-9.677h-3.045v9.677z" />
<glyph unicode="&#xe9a2;" d="M215.241 505.33h3.048v-9.677h-3.048v9.677z" />
<glyph unicode="&#xe9a3;" d="M210.087 505.33h3.048v-9.677h-3.048v9.677z" />
<glyph unicode="&#xe9a4;" d="M204.865 505.33h3.052v-9.677h-3.052v9.677z" />
<glyph unicode="&#xe9a5;" d="M829.928 531.173h132.71v-132.71h-132.71v132.71z" />
<glyph unicode="&#xe9a6;" d="M896.29 531.173h66.348v-132.71h-66.348v132.71z" />
<glyph unicode="&#xe9a7;" d="M826.655 533.255h139.257v-23.504h-139.257v23.504z" />
<glyph unicode="&#xe9a8;" d="M896.29 533.255h69.618v-23.504h-69.618v23.504z" />
<glyph unicode="&#xe9a9;" d="M795.116 394.301h38.356v-38.356h-38.356v38.356z" />
<glyph unicode="&#xe9aa;" d="M959.092 394.301h38.349v-38.356h-38.349v38.356z" />
<glyph unicode="&#xe9ab;" d="M795.116 394.312h202.329v-16.367h-202.329v16.367z" />
<glyph unicode="&#xe9ac;" d="M896.29 394.312h101.154v-16.367h-101.154v16.367z" />
<glyph unicode="&#xe9ad;" d="M836.413 498.674h46.889v-21.272h-46.889v21.272z" />
<glyph unicode="&#xe9ae;" d="M874.892 495.947h4.99v-15.821h-4.99v15.821z" />
<glyph unicode="&#xe9af;" d="M866 495.947h4.987v-15.821h-4.987v15.821z" />
<glyph unicode="&#xe9b0;" d="M856.815 495.947h4.98v-15.821h-4.98v15.821z" />
<glyph unicode="&#xe9b1;" d="M848.391 495.947h4.983v-15.821h-4.983v15.821z" />
<glyph unicode="&#xe9b2;" d="M839.847 495.947h4.987v-15.821h-4.987v15.821z" />
<glyph unicode="&#xe9b3;" glyph-name="plane" d="M956.686 753.268c42.032 56.263 67.191 114.678 67.313 156.41-0.052 13.514-2.762 24.076-7.919 31.943-0.542 0.962-2.028 3.48-4.65 5.962-2.607 2.587-4.949 3.969-5.456 4.248-8.252 5.508-18.864 8.165-32.381 8.165-41.629-0.070-100.061-25.212-156.34-67.313-45.491-34.041-90.985-81.982-153.963-148.367-10.683-11.259-21.926-23.097-33.815-35.51l-121.984 36.559 0.366 0.35c5.070 5.123 7.956 12.169 7.886 19.093 0.070 7.309-2.885 14.354-7.973 19.424l-22.029 22.064c-5.088 5.123-12.117 8.060-19.389 8.060-7.344 0-14.197-2.833-19.32-8.008l-32.957-32.975-17.45 5.21c3.76 4.774 5.839 10.735 5.769 16.61 0.070 7.414-2.798 14.319-7.954 19.443l-22.135 22.135c-5.053 5.070-12.047 7.973-19.389 7.973-7.309 0-14.145-2.851-19.215-8.008l-30.246-30.23-124.031 37.153c-2.779 0.822-5.717 1.258-8.865 1.258-8.811-0.105-16.976-3.375-22.938-9.285l-43.605-43.622c-4.949-4.948-7.728-11.644-7.675-17.99-0.157-9.353 5.018-17.99 13.305-22.431l260.825-145.71c1.277-0.716 4.966-3.445 6.33-4.809l74.359-74.342c-69.551-73.274-131.515-144.243-179.803-205.977-4.511-5.736-8.778-11.329-12.974-16.873l-201.781 18.323c-0.979 0.122-2.081 0.211-3.48 0.211-9.249-0.192-18.288-3.848-25.001-10.334l-20.334-20.316c-5.018-4.914-7.851-11.557-7.78-17.973-0.157-9.792 5.769-18.847 14.669-22.816l141.951-67.418c1.223-0.612 4.406-2.868 5.438-3.899l11.784-11.697c-3.689-10.386-5.56-19.389-5.665-27.293-0.035-10.576 3.375-19.633 9.897-26.155l0.507-0.438 0.139-0.104c6.696-6.487 15.368-9.792 26.104-9.792 7.728 0.122 16.645 1.958 27.066 5.629l11.958-11.942c0.927-0.979 3.147-4.091 3.725-5.332l67.278-141.638c4.109-9.039 12.972-14.895 22.623-14.895h0.139c6.679 0 13.061 2.675 17.938 7.57l20.823 20.893c6.171 6.504 9.808 15.472 9.947 24.931 0 1.153-0.052 2.046-0.087 2.537l-18.375 202.515c5.525 4.161 11.12 8.445 16.871 12.92 61.823 48.36 132.808 110.377 205.942 179.824l74.412-74.482c1.206-1.153 4.021-4.844 4.844-6.382l145.431-260.353c4.441-8.409 12.991-13.603 22.468-13.603 6.766 0 13.2 2.675 18.131 7.64l43.918 43.886c5.701 5.96 8.9 14.057 8.987 22.903 0 2.972-0.418 5.856-1.188 8.567l-37.153 124.066 30.228 30.282c5.088 5.055 7.974 12.082 7.974 19.302 0 7.257-2.816 14.075-7.938 19.269l-22.17 22.151c-5.070 5.088-12.082 7.99-19.302 7.99-6.119 0-12.097-2.046-16.767-5.736l-5.194 17.379 32.992 32.992c5.070 5.088 7.956 12.117 7.956 19.356 0 7.29-2.816 14.125-7.956 19.248l-22.066 22.066c-5.088 5.158-12.151 8.078-19.407 8.078-7.29 0-14.354-2.955-19.337-8.043l-0.228-0.209-36.543 121.968c12.624 12.029 24.599 23.482 36.052 34.269 66.15 62.77 113.915 108.089 147.867 153.476z" />
<glyph unicode="&#xe9b4;" glyph-name="road" d="M1009.358 194.254l-234.62 587.386c-3.001 7.128-7.877 13.316-14.622 18.562-6.757 5.258-13.891 7.881-21.389 7.881h-190.732c4.871 0 9.185-1.778 12.935-5.338 3.748-3.571 5.811-7.782 6.192-12.657l8.442-108.033c0.376-5.252-1.119-9.566-4.483-12.935-3.386-3.376-7.508-5.061-12.389-5.061h-93.397c-4.875 0-8.996 1.685-12.374 5.061-3.376 3.368-4.875 7.684-4.495 12.935l8.44 108.033c0.37 4.875 2.43 9.087 6.188 12.657 3.75 3.555 8.060 5.338 12.941 5.338h-190.737c-7.5 0-14.628-2.623-21.382-7.881-6.748-5.24-11.619-11.434-14.624-18.562l-234.624-587.386c-9.753-23.254-14.628-45.008-14.628-65.266 0-27.382 8.626-41.070 25.883-41.070h396.093c-4.875 0-8.996 1.779-12.376 5.34-3.376 3.573-4.875 7.782-4.495 12.665l11.248 144.015c0.374 4.883 2.438 9.098 6.188 12.665 3.748 3.569 8.066 5.335 12.941 5.335h153.029c4.883 0 9.185-1.766 12.947-5.335 3.75-3.567 5.813-7.782 6.186-12.665l11.262-144.015c0.384-4.883-1.133-9.091-4.497-12.665-3.372-3.561-7.5-5.34-12.382-5.34h396.087c17.251 0 25.885 13.688 25.885 41.070 0 20.25-4.883 42.006-14.642 65.266zM596.962 391.743c0.365-4.505-1.133-8.253-4.505-11.248-3.366-3.007-7.317-4.505-11.814-4.505h-137.285c-4.503 0-8.448 1.498-11.816 4.505-3.38 3.007-4.877 6.757-4.505 11.248v2.252l13.507 180.031c0.374 4.877 2.438 9.095 6.188 12.659s8.066 5.344 12.941 5.344h104.642c4.883 0 9.199-1.774 12.947-5.344 3.748-3.565 5.813-7.782 6.192-12.659l13.503-180.031v-2.252h0.006z" />
<glyph unicode="&#xe9b5;" glyph-name="sheep" d="M803.7 369.369c0 0-129.198 79.72-129.36 79.82-9.298 5.738-21.82 2.712-27.54-6.518-5.732-9.25-2.69-21.842 6.52-27.52 0 0 129.28-79.772 129.36-79.82 9.294-5.734 21.806-2.784 27.52 6.518 5.714 9.304 2.802 21.786-6.5 27.52zM595.765 494.171c-12.774 0.002-22.406-12.158-19.486-24.59 1.162-4.952 4.566-9.45 9.050-12.29 3.078-1.95 6.666-3.12 10.392-3.12 6.998 0 13.378 3.538 17.038 9.496 7.796 12.692-2.004 30.502-16.994 30.504zM388.665 443.705c-5.642 8.986-18.65 11.89-27.584 6.246 0 0-128.364-80.944-128.58-81.080-9.25-5.832-12.072-18.328-6.246-27.57 3.502-5.558 10.26-8.816 16.95-9.004 3.764-0.106 7.506 0.76 10.636 2.734 0 0 128.49 81.042 128.58 81.1 9.248 5.832 12.056 18.318 6.244 27.574zM439.381 495.711c-9.288 0-17.426-6.528-19.48-15.576-2.798-12.326 6.96-24.424 19.52-24.424 9.27 0 17.454 6.526 19.5 15.582 2.802 12.4-6.866 24.418-19.54 24.418zM1019.094 49.074c-7.248 8.336-19.88 9.216-28.216 1.968-21.326-18.542-41.062-37.766-69.044-45.5-31.106-8.596-60.668-1.812-88.82 12.264l104.158 350.447c2.592 8.718-1.028 18.088-8.806 22.802l-96.366 58.39v170.506c0 11.044-8.954 20-20 20h-40v60c0 11.044-8.954 20-20 20h-63v60c0 11.044-8.954 20-20 20h-97v140c0 11.044-8.954 20-20 20h-80c-11.046 0-20-8.956-20-20v-140h-97c-11.046 0-20-8.956-20-20v-60h-63c-11.046 0-20-8.956-20-20v-60h-40c-11.046 0-20-8.956-20-20v-170.506l-96.364-58.388c-7.78-4.714-11.398-14.084-8.806-22.802 0 0 103.902-349.579 103.946-349.731-1.774 5.968-33.778 9.898-39.436 10.63-58.234 7.536-102.516-21.636-144.464-58.11-8.336-7.248-9.216-19.878-1.97-28.214 6.918-7.956 19.792-9.292 28.214-1.97 43.216 37.568 91.938 66.206 149.118 37.612 51.728-25.862 105.272-36.952 159.15-8.6 43.444 22.868 85.368 42.614 133.86 19.526l49.854-23.74c42.652-20.312 91.348-19.844 133.598 1.284 26.036 13.018 52.498 30.342 82.238 32.386 29.152 2.002 57.32-8.852 82.934-21.67 33.838-16.92 73.452-20.3 109.788-9.942 33.47 9.542 57.828 30.858 83.462 53.146 8.338 7.246 9.218 19.876 1.972 28.212zM792 599.951v-126.27l-208.396 126.27h208.396zM492.001 919.95h40v-120h-40v120zM375.001 759.95h273.999v-40h-273.999v40zM232.002 599.951h208.396l-208.396-126.27v126.27zM492.001 25.722c0.004 3.554-28.51 10.11-32.24 10.918-34.808 7.534-72.176 2.75-103.732-13.86-22.896-12.050-44.986-26.108-71.172-29.48-0.048-0.006-0.096-0.012-0.144-0.018-15.3-1.86-30.96-0.734-45.768 3.584l-109.374 367.981 362.429 219.6c0 0 0-558.703 0-558.725zM292.001 639.951v40h439.999v-40h-439.999zM796.044 33.834c0.222 6.188-56.078 6.132-59.85 5.734-34.716-3.672-64.748-21.534-95.384-36.852-36.192-18.096-73.432-12.894-108.81 3.96v577.771l362.429-219.6-98.386-331.013z" />
<glyph unicode="&#xe9b6;" glyph-name="shipped" d="M952.316 497.274l-26.518 106.070c7.25 1.54 12.69 7.972 12.69 15.678v17.102c0 37.132-30.21 67.34-67.34 67.34h-120.784v35.276c0 18.272-14.864 33.136-33.136 33.136h-615.684c-18.272 0-33.136-14.864-33.136-33.136v-290.74c0-8.854 7.178-16.034 16.034-16.034 8.854 0 16.034 7.178 16.034 16.034v290.74c0 0.59 0.478 1.068 1.068 1.068h615.682c0.59 0 1.068-0.478 1.068-1.068v-290.744c0-8.854 7.178-16.034 16.034-16.034 8.854 0 16.034 7.178 16.034 16.034v18.176h189.138c0.016 0 0.028-0.004 0.042-0.004 0.016 0 0.030 0.002 0.044 0.002 23.274-0.016 43.036-15.292 49.824-36.342h-49.856c-8.854 0-16.034-7.178-16.034-16.034v-34.204c0-27.702 22.536-50.238 50.238-50.238h18.172v-70.546h-41.924c-13.772 39.766-51.574 68.41-95.964 68.41s-82.194-28.644-95.964-68.41h-7.72v120.786c0 8.854-7.178 16.034-16.034 16.034-8.854 0-16.034-7.178-16.034-16.034v-120.782h-332.656c-13.772 39.766-51.574 68.41-95.964 68.41s-82.194-28.644-95.964-68.41h-92.162c-0.59 0-1.068 0.478-1.068 1.068v35.274h69.478c8.854 0 16.034 7.178 16.034 16.034s-7.178 16.034-16.034 16.034h-153.92c-8.854 0-16.034-7.178-16.034-16.034s7.178-16.034 16.034-16.034h52.376v-35.274c0-18.272 14.864-33.136 33.136-33.136h86.608c-0.004-0.356-0.028-0.71-0.028-1.068 0-55.992 45.554-101.544 101.544-101.544s101.544 45.552 101.544 101.544c0 0.36-0.024 0.712-0.028 1.068h361.34c-0.004-0.356-0.028-0.71-0.028-1.068 0-55.992 45.554-101.544 101.544-101.544s101.544 45.552 101.544 101.544c0 0.36-0.024 0.712-0.028 1.068h52.406c8.854 0 16.034 7.178 16.034 16.034v171.022c0.002 42.224-31.152 77.306-71.682 83.476zM750.364 671.398h120.784c19.45 0 35.274-15.824 35.274-35.274v-1.068h-156.058v36.342zM750.364 498.238v104.752h142.47l26.188-104.752h-168.658zM289.67 156.192c-38.31 0-69.478 31.166-69.478 69.478s31.168 69.478 69.478 69.478c38.31 0 69.478-31.166 69.478-69.478s-31.168-69.478-69.478-69.478zM854.046 156.192c-38.31 0-69.478 31.166-69.478 69.478s31.168 69.478 69.478 69.478c38.31 0 69.478-31.166 69.478-69.478s-31.168-69.478-69.478-69.478zM991.934 361.42h-18.172c-10.020 0-18.172 8.152-18.172 18.172v18.172h36.342v-36.344zM289.67 258.806c-18.272 0-33.136-14.864-33.136-33.136s14.864-33.136 33.136-33.136c18.272 0 33.136 14.864 33.136 33.136s-14.864 33.136-33.136 33.136zM854.046 258.806c-18.272 0-33.136-14.864-33.136-33.136s14.864-33.136 33.136-33.136c18.272 0 33.136 14.864 33.136 33.136s-14.864 33.136-33.136 33.136zM665.92 327.214h-239.432c-8.854 0-16.034-7.178-16.034-16.034s7.178-16.034 16.034-16.034h239.432c8.854 0 16.034 7.178 16.034 16.034s-7.178 16.034-16.034 16.034zM255.466 395.624h-205.228c-8.854 0-16.034-7.178-16.034-16.034s7.178-16.034 16.034-16.034h205.228c8.854 0 16.034 7.178 16.034 16.034s-7.18 16.034-16.034 16.034zM557.542 613.26c-6.26 6.26-16.414 6.26-22.674-0.002l-142.584-142.582-74.174 74.174c-6.262 6.262-16.414 6.262-22.674 0-6.262-6.262-6.262-16.412 0-22.674l85.512-85.512c3.13-3.132 7.234-4.696 11.336-4.696s8.208 1.564 11.336 4.696l153.92 153.92c6.262 6.264 6.262 16.414 0.002 22.676z" />
<glyph unicode="&#xe9b7;" glyph-name="train" d="M910.846 0.98l-150.127 273.365c42.573 6.722 73.941 44.814 73.941 87.389v403.326c0 107.552-87.387 194.939-194.941 194.939h-255.44c-107.554 0-197.182-87.387-197.182-197.182v-401.085c0-44.814 31.37-80.665 73.943-87.389l-147.886-273.364c-11.204-22.407-4.481-49.295 17.926-60.499 6.722-4.481 13.444-4.481 20.166-4.481 15.685 0 31.37 8.963 38.092 22.407l13.444 22.407h618.433l13.442-22.407c8.965-15.685 22.407-22.407 38.094-22.407 6.72 0 13.442 2.239 20.166 4.481 22.407 11.204 29.131 38.092 17.927 60.499zM700.218 202.643h-376.438l38.092 69.462h300.254l38.092-69.462zM693.498 352.77c-35.851 0-64.982 29.129-64.982 64.982 0 35.851 29.129 64.98 64.982 64.98 35.849 0 64.98-29.129 64.98-64.98-0.002-33.612-29.131-64.982-64.98-64.982zM265.522 738.171c0 69.462 56.018 125.479 123.239 125.479h244.236c67.221 0 125.479-56.018 125.479-125.479v-107.554c0-24.648-20.166-42.573-44.814-42.573h-403.326c-24.648 0-42.573 20.166-42.573 42.573l-2.241 107.554zM330.502 484.972c35.851 0 64.98-29.129 64.98-64.982 0-35.849-29.129-64.98-64.98-64.98s-64.98 29.129-64.98 64.98c0 35.853 29.131 64.982 64.98 64.982zM238.635 48.035l49.295 87.387h448.14l49.295-87.387h-546.731z" />
<glyph unicode="&#xe9b8;" glyph-name="trolley" d="M67.13 783.389c-19.108 57.914 12.46 120.584 70.381 139.695s120.588-12.467 139.695-70.381l217.344-658.73c-20.254 5.348-41.795 6.326-63.299 2.394l-210.417 637.735c-8.855 26.838-37.886 41.464-64.723 32.609-26.838-8.855-41.464-37.886-32.609-64.723 5.135-15.566-3.32-32.351-18.887-37.486-15.566-5.135-32.35 3.321-37.486 18.887zM923.461 266.638l-356.104-117.495c12.638-14.348 22.655-31.404 29.017-50.678 0.226-0.688 0.353-1.382 0.569-2.071l345.119 113.871c15.566 5.135 24.022 21.921 18.887 37.485-5.137 15.569-21.924 24.025-37.488 18.889zM568.189 89.158c20.177-61.15-13.041-127.078-74.19-147.255-61.15-20.177-127.078 13.039-147.255 74.19s13.041 127.078 74.19 147.255c61.15 20.179 127.080-13.039 147.255-74.19zM512.827 70.893c-10.088 30.574-43.050 47.181-73.627 37.093-30.574-10.086-47.183-43.051-37.095-73.626s43.051-47.183 73.627-37.097c30.574 10.089 47.183 43.055 37.095 73.629zM833.466 713.462l120.899-366.426c2.568-7.782-1.66-16.175-9.444-18.743l-380.519-125.549c-7.782-2.568-16.175 1.66-18.742 9.444l-120.899 366.426c-2.568 7.784 1.66 16.175 9.444 18.743l380.517 125.55c7.784 2.565 16.175-1.661 18.743-9.445zM783.131 500.608l-129.569 71.287-61.681-134.39 40.838-18.795 26.669 58.139 48.156-145.957 46.088 15.206-48.15 145.935 56.014-30.832 21.634 39.407zM670.070 719.213l-77.295 234.268c-1.641 4.976-7.007 7.68-11.983 6.037l-66.277-21.867-0.325-0.596-0.556 0.305-34.968-11.538 28.796-87.272-39.442-13.014-28.794 87.272-34.98-11.542-0.264-0.576-0.619 0.284-65.847-21.727c-4.978-1.641-7.678-7.007-6.037-11.983l77.297-234.27c1.641-4.976 7.007-7.68 11.983-6.037l243.28 80.27c4.971 1.643 7.675 7.009 6.032 11.985z" />
<glyph unicode="&#xe9b9;" glyph-name="truck" d="M978.959 599.463c-27.653 29.957-67.038 46.507-110.822 46.507h-105.375v56.982c0 13.827-11.313 25.139-25.139 25.139h-501.944c-13.827 0-25.139-11.313-25.139-25.139v-87.568h-97.833c-13.827 0-25.139-11.313-25.139-25.139s11.313-25.139 25.139-25.139h122.344c0.209 0 0.419 0 0.628 0 0 0 0 0 0.209 0 13.827 0 25.139 11.313 25.139 25.139v87.568h451.666v-394.056h-236.727c-1.047 0-2.095 0-3.142-0.209-12.57 31.005-42.946 53.002-78.35 53.002-35.614 0-65.99-22.206-78.35-53.421-1.885 0.419-3.561 0.628-5.447 0.628h-49.65v87.777c0 13.827-11.313 25.139-25.139 25.139-0.419 0-0.838 0-1.257 0s-0.628 0-1.047 0h-120.877c-13.827 0-25.139-11.313-25.139-25.139s11.313-25.139 25.139-25.139h97.833v-87.568c0-13.827 11.313-25.139 25.139-25.139h74.789c0.628 0 1.047 0 1.676 0 8.38-37.709 42.108-65.781 82.331-65.781s73.741 28.072 82.331 65.781h301.25c8.589-37.499 42.108-65.781 82.331-65.781s73.741 28.072 82.331 65.781h56.144c13.827 0 25.139 11.313 25.139 25.139v208.864c0 54.259-15.712 99.928-45.041 131.771zM394.475 217.977c-18.854 0-34.147 15.293-34.147 34.147s15.293 34.147 34.147 34.147 34.147-15.293 34.147-34.147c0-18.854-15.293-34.147-34.147-34.147zM860.386 217.977c-18.854 0-34.147 15.293-34.147 34.147s15.293 34.147 34.147 34.147 34.147-15.293 34.147-34.147c-0.209-18.854-15.502-34.147-34.147-34.147zM973.722 283.758h-35.195c-12.57 30.795-42.946 52.792-78.141 52.792s-65.571-21.787-78.141-52.792h-19.273v311.935h105.375c65.99 0 105.375-47.974 105.375-128.209v-183.725zM431.764 433.755c-9.846-9.846-9.846-25.768 0-35.614 4.818-4.818 11.313-7.332 17.807-7.332s12.779 2.514 17.807 7.332l64.943 64.943c0.419 0.628 1.047 1.047 1.466 1.676 0.209 0.419 0.419 0.628 0.628 1.047s0.419 0.628 0.838 1.047c0.209 0.419 0.419 0.838 0.628 1.257s0.419 0.628 0.628 1.047c0.209 0.419 0.419 0.838 0.628 1.257s0.419 0.628 0.419 1.047c0.209 0.419 0.209 0.838 0.419 1.257s0.209 0.838 0.419 1.047c0.209 0.419 0.209 0.838 0.209 1.257s0.209 0.838 0.209 1.257c0 0.419 0.209 0.838 0.209 1.466 0 0.419 0.209 0.628 0.209 1.047 0.209 1.676 0.209 3.352 0 5.028 0 0.419 0 0.628-0.209 1.047 0 0.419-0.209 0.838-0.209 1.466 0 0.419-0.209 0.838-0.209 1.257s-0.209 0.838-0.209 1.257c-0.209 0.419-0.209 0.838-0.419 1.047-0.209 0.419-0.209 0.838-0.419 1.257s-0.419 0.628-0.419 1.047c-0.209 0.419-0.419 0.838-0.628 1.257s-0.419 0.628-0.628 1.047c-0.209 0.419-0.419 0.838-0.628 1.257s-0.419 0.628-0.838 1.047c-0.209 0.419-0.419 0.628-0.628 1.047-0.419 0.628-1.047 1.047-1.466 1.676l-61.8 61.8c-9.846 9.846-25.768 9.846-35.614 0s-9.846-25.768 0-35.614l18.645-18.645h-428.412c-13.827 0-25.139-11.313-25.139-25.139s11.313-25.139 25.139-25.139h428.203l-21.578-23.044z" />
<glyph unicode="&#xe9ba;" glyph-name="truck-clock" d="M655.723 525.193c-1.233 10.232-5.122 19.563-11.098 27.355l41.034 254.658c1.528 9.475-4.551 18.509-13.901 20.669l-0.458 0.104c-9.35 2.16-18.772-3.298-21.554-12.482l-74.752-246.869c-18.422-9.263-31.21-28.145-31.21-50.136 0-31.051 25.25-56.317 56.3-56.317 5.786 0 11.257 1.129 16.513 2.756l156.167-81.155c8.592-4.464 19.168-1.677 24.44 6.445l0.236 0.363c5.274 8.118 3.52 18.916-4.056 24.947l-137.659 109.662zM572.274 518.492c0 15.332 12.479 27.81 27.81 27.81 15.345 0 27.824-12.479 27.824-27.81 0-15.343-12.479-27.824-27.824-27.824-15.332 0-27.81 12.479-27.81 27.824zM1024 518.492c0-188.5-123.7-348.583-294.164-403.525l-0.008 60.362c138.468 52.532 237.188 186.507 237.188 343.162 0 202.324-164.61 366.932-366.932 366.932-202.324 0-366.932-164.608-366.932-366.932 0-20.296 1.73-40.189 4.916-59.599h-57.627c-2.754 19.486-4.273 39.365-4.273 59.599 0 233.751 190.164 423.916 423.916 423.916s423.916-190.164 423.916-423.916zM673.983 216.432l-130.493 129.069c-8.262 8.264-19.516 12.823-31.056 12.823h-65.817v24.645c0 18.378-14.957 33.193-33.335 33.193h-380.083c-18.377 0-33.193-14.815-33.193-33.193v-222.235h687.086v24.216c-0.002 11.821-4.703 23.219-13.108 31.481zM617.141 212.157h-126.362c-2.849 0-5.128 2.281-5.128 5.13v97.585c0 2.849 2.277 5.13 5.128 5.13h24.076c1.283 0 2.707-0.572 3.704-1.426l102.144-97.588c3.418-3.129 1.138-8.831-3.562-8.831zM687.104 142.373v-73.522c0-18.34-14.868-33.21-33.21-33.21h-35.534c-6.42 44.059-44.39 77.931-90.217 77.931-45.72 0-83.689-33.872-90.109-77.931h-180.109c-6.42 44.059-44.39 77.931-90.109 77.931s-83.689-33.872-90.109-77.931h-44.499c-18.342 0.003-33.21 14.87-33.21 33.208v73.524h687.104zM528.245 91.354c-38.035 0-68.949-30.772-68.949-68.807 0-38.039 30.914-68.954 68.949-68.954 38.037 0 68.809 30.916 68.809 68.954 0 38.035-30.772 68.807-68.809 68.807zM528.245-11.932c-19.088 0-34.475 15.385-34.475 34.476 0 18.947 15.385 34.475 34.475 34.475 18.947 0 34.334-15.526 34.334-34.475 0-19.091-15.387-34.476-34.334-34.476zM167.822 91.354c-38.035 0-68.951-30.772-68.951-68.807 0-38.039 30.916-68.954 68.951-68.954 38.037 0 68.809 30.916 68.809 68.954 0 38.035-30.772 68.807-68.809 68.807zM167.822-11.932c-19.090 0-34.475 15.385-34.475 34.476 0 18.947 15.385 34.475 34.475 34.475 18.947 0 34.475-15.526 34.475-34.475 0-19.091-15.527-34.476-34.475-34.476z" />
</font>
</defs>
</svg>
