<?xml version="1.0" encoding="utf-8"?>
<!-- Generator: Adobe Illustrator 16.0.0, SVG Export Plug-In . SVG Version: 6.00 Build 0)  -->
<!DOCTYPE svg PUBLIC "-//W3C//DTD SVG 1.1//EN" "http://www.w3.org/Graphics/SVG/1.1/DTD/svg11.dtd">
<svg version="1.1" id="Layer_1" xmlns="http://www.w3.org/2000/svg" xmlns:xlink="http://www.w3.org/1999/xlink" x="0px" y="0px"
	 width="300px" height="300px" viewBox="0 0 300 300" enable-background="new 0 0 300 300" xml:space="preserve">
<path fill-rule="evenodd" clip-rule="evenodd" fill="#81B1A3" d="M94.351,148.688v93.124h11.036v-89.278l86.538-30.373
	l86.541,30.373v89.278H289.5v-93.124l-97.575-35.065L94.351,148.688L94.351,148.688z M199.017,201.819h35.642v28.629h-35.642
	V201.819L199.017,201.819z M232.485,204.619v5.509h-12.14v-5.509H232.485L232.485,204.619z M235.538,194.247v6.313H198.14v-6.313
	H235.538L235.538,194.247z M222.521,205.323v4.099h-1.289v-4.099H222.521L222.521,205.323z M224.826,205.323v4.099h-1.291v-4.099
	H224.826L224.826,205.323z M227.205,205.323v4.099h-1.289v-4.099H227.205L227.205,205.323z M229.387,205.323v4.099h-1.291v-4.099
	H229.387L229.387,205.323z M231.597,205.323v4.099h-1.289v-4.099H231.597L231.597,205.323z M238.667,201.819h35.641v28.629h-35.641
	V201.819L238.667,201.819z M272.135,204.619v5.509h-12.139v-5.509H272.135L272.135,204.619z M275.188,194.247v6.313h-37.399v-6.313
	H275.188L275.188,194.247z M262.172,205.323v4.099h-1.29v-4.099H262.172L262.172,205.323z M264.476,205.323v4.099h-1.289v-4.099
	H264.476L264.476,205.323z M266.854,205.323v4.099h-1.289v-4.099H266.854L266.854,205.323z M269.037,205.323v4.099h-1.291v-4.099
	H269.037L269.037,205.323z M271.248,205.323v4.099h-1.292v-4.099H271.248L271.248,205.323z M239.307,164.395h35.642v28.627h-35.642
	V164.395L239.307,164.395z M272.773,167.194v5.507h-12.139v-5.507H272.773L272.773,167.194z M275.827,156.822v6.313h-37.399v-6.313
	H275.827L275.827,156.822z M262.812,167.899v4.098h-1.291v-4.098H262.812L262.812,167.899z M265.114,167.899v4.098h-1.289v-4.098
	H265.114L265.114,167.899z M267.495,167.899v4.098h-1.291v-4.098H267.495L267.495,167.899z M269.676,167.899v4.098h-1.29v-4.098
	H269.676L269.676,167.899z M271.887,167.899v4.098h-1.289v-4.098H271.887L271.887,167.899z M275.335,231.508v4.395H198.63v-4.395
	H275.335L275.335,231.508z M198.632,237.3h14.539v4.512h-14.539V237.3L198.632,237.3z M260.796,237.3h14.539v4.512h-14.539V237.3z"
	/>
<path fill-rule="evenodd" clip-rule="evenodd" fill="#91CEBE" d="M75.515,220.5v0.816h-1.634V220.5H75.515L75.515,220.5z
	 M143.714,220.5h-1.235v0.816h1.235V220.5L143.714,220.5z M141.662,220.5v0.816h-1.633V220.5H141.662L141.662,220.5z M139.212,220.5
	v0.816h-1.633V220.5H139.212L139.212,220.5z M136.762,220.5v0.816h-1.633V220.5H136.762L136.762,220.5z M134.313,220.5v0.816h-1.634
	V220.5H134.313L134.313,220.5z M131.862,220.5v0.816h-1.633V220.5H131.862L131.862,220.5z M129.413,220.5v0.816h-1.633V220.5
	H129.413L129.413,220.5z M126.963,220.5v0.816h-1.634V220.5H126.963L126.963,220.5z M124.513,220.5v0.816h-1.634V220.5H124.513
	L124.513,220.5z M122.063,220.5v0.816h-1.633V220.5H122.063L122.063,220.5z M119.613,220.5v0.816h-1.633V220.5H119.613
	L119.613,220.5z M117.163,220.5v0.816h-1.633V220.5H117.163L117.163,220.5z M114.713,220.5v0.816h-1.634V220.5H114.713
	L114.713,220.5z M112.264,220.5v0.816h-1.634V220.5H112.264L112.264,220.5z M109.813,220.5v0.816h-1.633V220.5H109.813
	L109.813,220.5z M107.363,220.5v0.816h-1.633V220.5H107.363L107.363,220.5z M104.914,220.5v0.816h-1.633V220.5H104.914
	L104.914,220.5z M102.464,220.5v0.816h-1.634V220.5H102.464L102.464,220.5z M100.014,220.5v0.816H98.38V220.5H100.014L100.014,220.5
	z M97.563,220.5v0.816h-1.633V220.5H97.563L97.563,220.5z M95.114,220.5v0.816h-1.633V220.5H95.114L95.114,220.5z M92.664,220.5
	v0.816H91.03V220.5H92.664L92.664,220.5z M90.214,220.5v0.816h-1.634V220.5H90.214L90.214,220.5z M87.765,220.5v0.816h-1.634V220.5
	H87.765L87.765,220.5z M85.314,220.5v0.816h-1.633V220.5H85.314L85.314,220.5z M82.864,220.5v0.816h-1.633V220.5H82.864
	L82.864,220.5z M80.415,220.5v0.816h-1.633V220.5H80.415L80.415,220.5z M77.965,220.5v0.816h-1.634V220.5H77.965z"/>
<path fill-rule="evenodd" clip-rule="evenodd" fill="#91CEBE" d="M57.16,62.046h0.816v1.632H57.16V62.046L57.16,62.046z
	 M130.512,40.8h-0.982v0.816h0.982V40.8L130.512,40.8z M128.714,40.8v0.816h-1.632V40.8H128.714L128.714,40.8z M126.264,40.8v0.816
	h-1.633V40.8H126.264L126.264,40.8z M123.814,40.8v0.816h-1.633V40.8H123.814L123.814,40.8z M121.365,40.8v0.816h-1.633V40.8
	H121.365L121.365,40.8z M118.914,40.8v0.816h-1.632V40.8H118.914L118.914,40.8z M116.464,40.8v0.816h-1.633V40.8H116.464
	L116.464,40.8z M114.015,40.8v0.816h-1.633V40.8H114.015L114.015,40.8z M111.565,40.8v0.816h-1.633V40.8H111.565L111.565,40.8z
	 M109.115,40.8v0.816h-1.633V40.8H109.115L109.115,40.8z M106.665,40.8v0.816h-1.632V40.8H106.665L106.665,40.8z M104.215,40.8
	v0.816h-1.632V40.8H104.215L104.215,40.8z M101.765,40.8v0.816h-1.633V40.8H101.765L101.765,40.8z M99.315,40.8v0.816h-1.633V40.8
	H99.315L99.315,40.8z M96.865,40.8v0.816h-1.633V40.8H96.865L96.865,40.8z M94.415,40.8v0.816h-1.632V40.8H94.415L94.415,40.8z
	 M91.965,40.8v0.816h-1.633V40.8H91.965L91.965,40.8z M89.516,40.8v0.816h-1.633V40.8H89.516L89.516,40.8z M87.066,40.8v0.816
	h-1.633V40.8H87.066L87.066,40.8z M84.616,40.8v0.816h-1.633V40.8H84.616L84.616,40.8z M82.166,40.8v0.816h-1.632V40.8H82.166
	L82.166,40.8z M79.716,40.8v0.816h-1.632V40.8H79.716L79.716,40.8z M77.266,40.8v0.816h-1.633V40.8H77.266L77.266,40.8z
	 M74.816,40.8v0.816h-1.633V40.8H74.816L74.816,40.8z M72.366,40.8v0.816h-1.632V40.8H72.366L72.366,40.8z M69.917,40.8v0.816
	h-1.633V40.8H69.917L69.917,40.8z M67.466,40.8v0.816h-1.633V40.8H67.466L67.466,40.8z M65.017,40.8v0.816h-1.633V40.8H65.017
	L65.017,40.8z M62.567,40.8v0.816h-1.633V40.8H62.567L62.567,40.8z M60.045,40.858c-0.566,0.086-1.219,0.41-1.648,0.786l0.534,0.62
	c0.321-0.287,0.84-0.539,1.265-0.604L60.045,40.858L60.045,40.858z M57.781,42.328c-0.36,0.551-0.553,1.058-0.61,1.718l0.814,0.069
	c0.044-0.514,0.19-0.897,0.47-1.325L57.781,42.328L57.781,42.328z M57.16,44.896h0.816v1.634H57.16V44.896L57.16,44.896z
	 M57.16,47.347h0.816v1.633H57.16V47.347L57.16,47.347z M57.16,49.796h0.816v1.634H57.16V49.796L57.16,49.796z M57.16,52.247h0.816
	v1.633H57.16V52.247L57.16,52.247z M57.16,54.697h0.816v1.632H57.16V54.697L57.16,54.697z M57.16,57.146h0.816v1.633H57.16V57.146
	L57.16,57.146z M57.16,59.595h0.816v1.634H57.16V59.595z"/>
<g>
	<path fill-rule="evenodd" clip-rule="evenodd" fill="#91CEBE" d="M222.869,36.776h10.92c9.286,0,16.882,4.58,16.882,10.178v1.543
		c0,5.598-7.596,10.178-16.882,10.178h-10.92V36.776z"/>
	<path fill-rule="evenodd" clip-rule="evenodd" fill="#565759" d="M125.514,78.82h146.604c1.246,0,2.266,1.021,2.266,2.265v16.14
		c0,1.245-1.021,2.266-2.266,2.266H125.514c-1.246,0-2.266-1.02-2.266-2.266v-16.14C123.248,79.839,124.268,78.82,125.514,78.82z"/>
	<path fill-rule="evenodd" clip-rule="evenodd" fill="#444445" d="M274.383,89.155v8.071c0,1.245-1.021,2.266-2.266,2.266H125.514
		c-1.246,0-2.266-1.02-2.266-2.266v-8.071H274.383z"/>
	<path fill-rule="evenodd" clip-rule="evenodd" fill="#91CEBE" d="M275.818,74.327v9.202c0,2.101-1.72,3.822-3.822,3.822h-11.929
		l-5.06-6.017c-0.626-0.744-1.682-1.097-2.654-1.097h-29.484V42.897c13.308,0,26.617,0,39.925,0c7.163,0,13.024,5.86,13.024,13.024
		C275.818,62.056,275.818,68.191,275.818,74.327z"/>
	<g>
		<g>
			<path fill-rule="evenodd" clip-rule="evenodd" fill="#565759" d="M246.155,85.237c6.854,0,12.408,5.555,12.408,12.406
				c0,6.853-5.555,12.406-12.408,12.406c-6.85,0-12.404-5.553-12.404-12.406C233.751,90.792,239.306,85.237,246.155,85.237z"/>
			<path fill-rule="evenodd" clip-rule="evenodd" fill="#444445" d="M246.157,85.237c6.852,0,12.406,5.555,12.406,12.406
				c0,6.853-5.555,12.406-12.406,12.408V85.237z"/>
			<circle fill-rule="evenodd" clip-rule="evenodd" fill="#818286" cx="246.155" cy="97.645" r="4.885"/>
			<path fill-rule="evenodd" clip-rule="evenodd" fill="#565759" d="M246.157,92.761c2.696,0,4.884,2.186,4.884,4.883
				c0,2.698-2.188,4.885-4.884,4.886V92.761z"/>
		</g>
		<polygon fill-rule="evenodd" clip-rule="evenodd" fill="#818286" points="230.188,99.681 230.188,89.137 230.262,88.628 
			230.652,88.301 238.448,81.793 238.818,81.484 239.306,81.484 253.007,81.484 253.495,81.484 253.865,81.792 261.66,88.301 
			262.051,88.628 262.125,89.137 262.125,99.681 259.482,100.057 259.556,90.023 252.519,84.148 239.795,84.149 232.758,90.023 
			232.833,100.057 		"/>
		<polygon fill-rule="evenodd" clip-rule="evenodd" fill="#565759" points="246.157,81.484 253.007,81.484 253.495,81.484 
			253.865,81.792 261.66,88.301 262.051,88.628 262.125,89.137 262.125,99.681 259.482,100.057 259.556,90.023 252.519,84.148 
			246.157,84.148 		"/>
	</g>
	<g>
		<g>
			<circle fill-rule="evenodd" clip-rule="evenodd" fill="#565759" cx="152.517" cy="97.644" r="12.406"/>
			<path fill-rule="evenodd" clip-rule="evenodd" fill="#444445" d="M152.517,85.237c6.852,0,12.406,5.555,12.406,12.406
				c0,6.853-5.555,12.406-12.406,12.408V85.237z"/>
			<circle fill-rule="evenodd" clip-rule="evenodd" fill="#818286" cx="152.517" cy="97.645" r="4.885"/>
			<path fill-rule="evenodd" clip-rule="evenodd" fill="#565759" d="M152.517,92.761c2.698,0,4.885,2.186,4.885,4.883
				c0,2.698-2.187,4.885-4.885,4.886V92.761z"/>
		</g>
		<polygon fill-rule="evenodd" clip-rule="evenodd" fill="#818286" points="136.549,99.681 136.548,89.137 136.623,88.628 
			137.014,88.301 144.81,81.793 145.18,81.484 145.667,81.484 159.367,81.484 159.856,81.484 160.224,81.792 168.02,88.301 
			168.411,88.628 168.485,89.137 168.485,99.681 165.841,100.057 165.916,90.023 158.881,84.148 146.154,84.149 139.118,90.023 
			139.193,100.057 		"/>
		<polygon fill-rule="evenodd" clip-rule="evenodd" fill="#565759" points="152.517,81.484 159.367,81.484 159.856,81.484 
			160.224,81.792 168.02,88.301 168.411,88.628 168.485,89.137 168.485,99.681 165.841,100.057 165.916,90.023 158.881,84.148 
			152.517,84.148 		"/>
	</g>
	<path fill-rule="evenodd" clip-rule="evenodd" fill="#81B1A3" d="M275.818,74.327v9.202c0,2.101-1.72,3.822-3.822,3.822h-11.929
		l-5.06-6.017c-0.626-0.744-1.682-1.097-2.654-1.097h-29.484V65.123h52.949V74.327z"/>
	<path fill-rule="evenodd" clip-rule="evenodd" fill="#91CEBE" d="M267.571,44.661h6.033c1.121,0,2.037,0.917,2.037,2.037v2.085
		c0,1.121-0.916,2.037-2.037,2.037h-6.033c-1.121,0-2.037-0.916-2.037-2.037v-2.085C265.534,45.577,266.45,44.661,267.571,44.661z"
		/>
	<path fill-rule="evenodd" clip-rule="evenodd" fill="#DFE9F2" d="M251.044,48.98h15.219c0.896,0,1.628,0.732,1.628,1.626v14.442
		c0,0.896-0.746,1.783-1.628,1.628L251.044,64c-0.883-0.155-1.629-0.732-1.629-1.628V50.606
		C249.415,49.712,250.147,48.98,251.044,48.98z"/>
	<path fill-rule="evenodd" clip-rule="evenodd" fill="#DFE9F2" d="M271.926,50.466h2.688c0.773,1.661,1.205,3.51,1.205,5.455v10.25
		l-3.893-0.683c-0.882-0.155-1.63-0.733-1.63-1.628V52.094C270.296,51.199,271.03,50.466,271.926,50.466z"/>
	<rect x="125.658" y="33.192" fill-rule="evenodd" clip-rule="evenodd" fill="#CCD7E0" width="93.02" height="45.516"/>
	<rect x="125.658" y="55.951" fill-rule="evenodd" clip-rule="evenodd" fill="#B5BFC9" width="93.279" height="22.757"/>
</g>
<g>
	<g>
		<polygon fill-rule="evenodd" clip-rule="evenodd" fill="#91CEBE" points="260.607,179.944 260.607,242.402 129.725,242.402 
			129.725,179.944 195.166,156.428 		"/>
		<polygon fill-rule="evenodd" clip-rule="evenodd" fill="#91CEBE" points="260.607,179.944 260.607,242.402 195.166,242.402 
			195.166,156.428 		"/>
		<polygon fill-rule="evenodd" clip-rule="evenodd" fill="#565759" points="137.126,182.524 195.166,162.153 253.207,182.524 
			253.207,242.402 137.126,242.402 		"/>
		<polygon fill-rule="evenodd" clip-rule="evenodd" fill="#444445" points="195.166,162.153 253.207,182.524 253.207,242.402 
			195.166,242.402 		"/>
	</g>
	<g>
		<rect x="140.042" y="237.316" fill-rule="evenodd" clip-rule="evenodd" fill="#D8BD76" width="7.179" height="5.086"/>
		<rect x="170.736" y="237.316" fill-rule="evenodd" clip-rule="evenodd" fill="#C4AA68" width="7.178" height="5.086"/>
		<rect x="140.042" y="237.314" fill-rule="evenodd" clip-rule="evenodd" fill="#E7D691" width="37.872" height="2.17"/>
		<rect x="158.979" y="237.314" fill-rule="evenodd" clip-rule="evenodd" fill="#D8BD76" width="18.936" height="2.17"/>
	</g>
	<g>
		<g>
			<rect x="140.792" y="219.194" fill-rule="evenodd" clip-rule="evenodd" fill="#D8BD76" width="17.597" height="17.597"/>
			<rect x="149.592" y="219.194" fill-rule="evenodd" clip-rule="evenodd" fill="#C4AA68" width="8.798" height="17.597"/>
			<rect x="140.358" y="218.918" fill-rule="evenodd" clip-rule="evenodd" fill="#E7D691" width="18.466" height="3.118"/>
			<rect x="149.592" y="218.918" fill-rule="evenodd" clip-rule="evenodd" fill="#D8BD76" width="9.232" height="3.118"/>
		</g>
		<g>
			<rect x="159.567" y="219.194" fill-rule="evenodd" clip-rule="evenodd" fill="#D8BD76" width="17.598" height="17.597"/>
			<rect x="168.366" y="219.194" fill-rule="evenodd" clip-rule="evenodd" fill="#C4AA68" width="8.799" height="17.597"/>
			<rect x="159.134" y="218.918" fill-rule="evenodd" clip-rule="evenodd" fill="#E7D691" width="18.464" height="3.118"/>
			<rect x="168.366" y="218.918" fill-rule="evenodd" clip-rule="evenodd" fill="#D8BD76" width="9.231" height="3.118"/>
		</g>
	</g>
	<g>
		<g>
			<rect x="180.052" y="237.316" fill-rule="evenodd" clip-rule="evenodd" fill="#D8BD76" width="7.18" height="5.086"/>
			<rect x="210.745" y="237.316" fill-rule="evenodd" clip-rule="evenodd" fill="#C4AA68" width="7.181" height="5.086"/>
			<rect x="180.052" y="237.314" fill-rule="evenodd" clip-rule="evenodd" fill="#E7D691" width="37.874" height="2.17"/>
			<rect x="198.99" y="237.314" fill-rule="evenodd" clip-rule="evenodd" fill="#D8BD76" width="18.936" height="2.17"/>
		</g>
		<g>
			<g>
				<rect x="180.802" y="219.194" fill-rule="evenodd" clip-rule="evenodd" fill="#D8BD76" width="17.597" height="17.597"/>
				<rect x="189.602" y="219.194" fill-rule="evenodd" clip-rule="evenodd" fill="#C4AA68" width="8.797" height="17.597"/>
				<rect x="180.368" y="218.918" fill-rule="evenodd" clip-rule="evenodd" fill="#E7D691" width="18.465" height="3.118"/>
				<rect x="189.602" y="218.918" fill-rule="evenodd" clip-rule="evenodd" fill="#D8BD76" width="9.231" height="3.118"/>
			</g>
			<g>
				<rect x="199.578" y="219.194" fill-rule="evenodd" clip-rule="evenodd" fill="#D8BD76" width="17.597" height="17.597"/>
				<rect x="208.377" y="219.194" fill-rule="evenodd" clip-rule="evenodd" fill="#C4AA68" width="8.798" height="17.597"/>
				<rect x="199.143" y="218.918" fill-rule="evenodd" clip-rule="evenodd" fill="#E7D691" width="18.467" height="3.118"/>
				<rect x="208.377" y="218.918" fill-rule="evenodd" clip-rule="evenodd" fill="#D8BD76" width="9.232" height="3.118"/>
			</g>
		</g>
	</g>
	<g>
		<rect x="140.792" y="200.717" fill-rule="evenodd" clip-rule="evenodd" fill="#D8BD76" width="17.597" height="17.597"/>
		<rect x="149.592" y="200.717" fill-rule="evenodd" clip-rule="evenodd" fill="#C4AA68" width="8.798" height="17.597"/>
		<rect x="140.358" y="200.44" fill-rule="evenodd" clip-rule="evenodd" fill="#E7D691" width="18.466" height="3.116"/>
		<rect x="149.592" y="200.44" fill-rule="evenodd" clip-rule="evenodd" fill="#D8BD76" width="9.232" height="3.116"/>
	</g>
	<g>
		<rect x="159.567" y="200.717" fill-rule="evenodd" clip-rule="evenodd" fill="#D8BD76" width="17.598" height="17.597"/>
		<rect x="168.366" y="200.717" fill-rule="evenodd" clip-rule="evenodd" fill="#C4AA68" width="8.799" height="17.597"/>
		<rect x="159.134" y="200.44" fill-rule="evenodd" clip-rule="evenodd" fill="#E7D691" width="18.464" height="3.116"/>
		<rect x="168.366" y="200.44" fill-rule="evenodd" clip-rule="evenodd" fill="#D8BD76" width="9.231" height="3.116"/>
	</g>
	<g>
		<rect x="140.792" y="182.086" fill-rule="evenodd" clip-rule="evenodd" fill="#D8BD76" width="17.597" height="17.597"/>
		<rect x="149.592" y="182.086" fill-rule="evenodd" clip-rule="evenodd" fill="#C4AA68" width="8.798" height="17.597"/>
		<rect x="140.358" y="181.81" fill-rule="evenodd" clip-rule="evenodd" fill="#E7D691" width="18.466" height="3.118"/>
		<rect x="149.592" y="181.81" fill-rule="evenodd" clip-rule="evenodd" fill="#D8BD76" width="9.232" height="3.118"/>
	</g>
	<g>
		<rect x="180.485" y="200.717" fill-rule="evenodd" clip-rule="evenodd" fill="#D8BD76" width="17.597" height="17.597"/>
		<rect x="189.286" y="200.717" fill-rule="evenodd" clip-rule="evenodd" fill="#C4AA68" width="8.796" height="17.597"/>
		<rect x="180.052" y="200.44" fill-rule="evenodd" clip-rule="evenodd" fill="#E7D691" width="18.467" height="3.116"/>
		<rect x="189.286" y="200.44" fill-rule="evenodd" clip-rule="evenodd" fill="#D8BD76" width="9.232" height="3.116"/>
	</g>
	<g>
		<rect x="141.514" y="186.55" fill-rule="evenodd" clip-rule="evenodd" fill="#DFE9F2" width="5.994" height="2.719"/>
		<g>
			<rect x="146.433" y="186.897" fill-rule="evenodd" clip-rule="evenodd" fill="#818286" width="0.637" height="2.022"/>
			<rect x="145.295" y="186.897" fill-rule="evenodd" clip-rule="evenodd" fill="#818286" width="0.637" height="2.022"/>
			<rect x="144.121" y="186.897" fill-rule="evenodd" clip-rule="evenodd" fill="#818286" width="0.637" height="2.022"/>
			<rect x="143.044" y="186.897" fill-rule="evenodd" clip-rule="evenodd" fill="#818286" width="0.637" height="2.022"/>
			<rect x="141.952" y="186.897" fill-rule="evenodd" clip-rule="evenodd" fill="#818286" width="0.637" height="2.022"/>
		</g>
	</g>
	<g>
		<rect x="141.819" y="205.409" fill-rule="evenodd" clip-rule="evenodd" fill="#DFE9F2" width="5.994" height="2.719"/>
		<g>
			<rect x="146.738" y="205.757" fill-rule="evenodd" clip-rule="evenodd" fill="#818286" width="0.637" height="2.023"/>
			<rect x="145.601" y="205.757" fill-rule="evenodd" clip-rule="evenodd" fill="#818286" width="0.637" height="2.023"/>
			<rect x="144.426" y="205.757" fill-rule="evenodd" clip-rule="evenodd" fill="#818286" width="0.637" height="2.023"/>
			<rect x="143.349" y="205.757" fill-rule="evenodd" clip-rule="evenodd" fill="#818286" width="0.637" height="2.023"/>
			<rect x="142.257" y="205.757" fill-rule="evenodd" clip-rule="evenodd" fill="#818286" width="0.637" height="2.023"/>
		</g>
	</g>
	<g>
		<rect x="160.525" y="205.409" fill-rule="evenodd" clip-rule="evenodd" fill="#DFE9F2" width="5.994" height="2.719"/>
		<g>
			<rect x="165.444" y="205.757" fill-rule="evenodd" clip-rule="evenodd" fill="#818286" width="0.639" height="2.023"/>
			<rect x="164.307" y="205.757" fill-rule="evenodd" clip-rule="evenodd" fill="#818286" width="0.638" height="2.023"/>
			<rect x="163.132" y="205.757" fill-rule="evenodd" clip-rule="evenodd" fill="#818286" width="0.638" height="2.023"/>
			<rect x="162.057" y="205.757" fill-rule="evenodd" clip-rule="evenodd" fill="#818286" width="0.637" height="2.023"/>
			<rect x="160.964" y="205.757" fill-rule="evenodd" clip-rule="evenodd" fill="#818286" width="0.638" height="2.023"/>
		</g>
	</g>
	<g>
		<rect x="181.601" y="205.409" fill-rule="evenodd" clip-rule="evenodd" fill="#DFE9F2" width="5.993" height="2.719"/>
		<g>
			<rect x="186.52" y="205.757" fill-rule="evenodd" clip-rule="evenodd" fill="#818286" width="0.636" height="2.023"/>
			<rect x="185.382" y="205.757" fill-rule="evenodd" clip-rule="evenodd" fill="#818286" width="0.636" height="2.023"/>
			<rect x="184.206" y="205.757" fill-rule="evenodd" clip-rule="evenodd" fill="#818286" width="0.638" height="2.023"/>
			<rect x="183.129" y="205.757" fill-rule="evenodd" clip-rule="evenodd" fill="#818286" width="0.639" height="2.023"/>
			<rect x="182.038" y="205.757" fill-rule="evenodd" clip-rule="evenodd" fill="#818286" width="0.637" height="2.023"/>
		</g>
	</g>
	<g>
		<rect x="141.819" y="224.038" fill-rule="evenodd" clip-rule="evenodd" fill="#DFE9F2" width="5.994" height="2.72"/>
		<g>
			<rect x="146.738" y="224.388" fill-rule="evenodd" clip-rule="evenodd" fill="#818286" width="0.637" height="2.022"/>
			<rect x="145.601" y="224.388" fill-rule="evenodd" clip-rule="evenodd" fill="#818286" width="0.637" height="2.022"/>
			<rect x="144.426" y="224.388" fill-rule="evenodd" clip-rule="evenodd" fill="#818286" width="0.637" height="2.022"/>
			<rect x="143.349" y="224.388" fill-rule="evenodd" clip-rule="evenodd" fill="#818286" width="0.637" height="2.022"/>
			<rect x="142.257" y="224.388" fill-rule="evenodd" clip-rule="evenodd" fill="#818286" width="0.637" height="2.022"/>
		</g>
	</g>
	<g>
		<rect x="160.525" y="224.038" fill-rule="evenodd" clip-rule="evenodd" fill="#DFE9F2" width="5.994" height="2.72"/>
		<g>
			<rect x="165.444" y="224.388" fill-rule="evenodd" clip-rule="evenodd" fill="#818286" width="0.639" height="2.022"/>
			<rect x="164.307" y="224.388" fill-rule="evenodd" clip-rule="evenodd" fill="#818286" width="0.638" height="2.022"/>
			<rect x="163.132" y="224.388" fill-rule="evenodd" clip-rule="evenodd" fill="#818286" width="0.638" height="2.022"/>
			<rect x="162.057" y="224.388" fill-rule="evenodd" clip-rule="evenodd" fill="#818286" width="0.637" height="2.022"/>
			<rect x="160.964" y="224.388" fill-rule="evenodd" clip-rule="evenodd" fill="#818286" width="0.638" height="2.022"/>
		</g>
	</g>
	<g>
		<rect x="181.601" y="224.038" fill-rule="evenodd" clip-rule="evenodd" fill="#DFE9F2" width="5.993" height="2.72"/>
		<g>
			<rect x="186.52" y="224.388" fill-rule="evenodd" clip-rule="evenodd" fill="#818286" width="0.636" height="2.022"/>
			<rect x="185.382" y="224.388" fill-rule="evenodd" clip-rule="evenodd" fill="#818286" width="0.636" height="2.022"/>
			<rect x="184.206" y="224.388" fill-rule="evenodd" clip-rule="evenodd" fill="#818286" width="0.638" height="2.022"/>
			<rect x="183.129" y="224.388" fill-rule="evenodd" clip-rule="evenodd" fill="#818286" width="0.639" height="2.022"/>
			<rect x="182.038" y="224.388" fill-rule="evenodd" clip-rule="evenodd" fill="#818286" width="0.637" height="2.022"/>
		</g>
	</g>
	<g>
		<rect x="200.649" y="224.038" fill-rule="evenodd" clip-rule="evenodd" fill="#DFE9F2" width="5.993" height="2.72"/>
		<g>
			<rect x="205.568" y="224.388" fill-rule="evenodd" clip-rule="evenodd" fill="#818286" width="0.638" height="2.022"/>
			<rect x="204.431" y="224.388" fill-rule="evenodd" clip-rule="evenodd" fill="#818286" width="0.638" height="2.022"/>
			<rect x="203.258" y="224.388" fill-rule="evenodd" clip-rule="evenodd" fill="#818286" width="0.636" height="2.022"/>
			<rect x="202.181" y="224.388" fill-rule="evenodd" clip-rule="evenodd" fill="#818286" width="0.636" height="2.022"/>
			<rect x="201.088" y="224.388" fill-rule="evenodd" clip-rule="evenodd" fill="#818286" width="0.638" height="2.022"/>
		</g>
	</g>
</g>
<g>
	<rect x="17.543" y="81.766" fill-rule="evenodd" clip-rule="evenodd" fill="#565759" width="8.432" height="5.32"/>
	<polygon fill-rule="evenodd" clip-rule="evenodd" fill="#91CEBE" points="23.11,78.607 26.879,78.607 32.593,96.59 83.839,96.59 
		83.839,104.028 23.11,104.028 	"/>
	<rect x="17.543" y="40.681" fill-rule="evenodd" clip-rule="evenodd" fill="#818286" width="4.585" height="59.419"/>
	<g>
		<circle fill-rule="evenodd" clip-rule="evenodd" fill="#565759" cx="19.835" cy="101.075" r="10.219"/>
		<path fill-rule="evenodd" clip-rule="evenodd" fill="#444445" d="M19.836,90.856c5.644,0,10.219,4.575,10.219,10.22
			c0,5.644-4.576,10.218-10.219,10.218V90.856z"/>
		<circle fill-rule="evenodd" clip-rule="evenodd" fill="#818286" cx="19.835" cy="101.075" r="4.024"/>
		<path fill-rule="evenodd" clip-rule="evenodd" fill="#565759" d="M19.836,97.051c2.222,0.001,4.023,1.803,4.023,4.025
			s-1.802,4.023-4.023,4.023V97.051z"/>
	</g>
	<g>
		<circle fill-rule="evenodd" clip-rule="evenodd" fill="#565759" cx="74.18" cy="105.074" r="6.22"/>
		<path fill-rule="evenodd" clip-rule="evenodd" fill="#444445" d="M74.18,98.854c3.436,0,6.221,2.785,6.221,6.22
			s-2.785,6.22-6.221,6.22V98.854z"/>
		<circle fill-rule="evenodd" clip-rule="evenodd" fill="#818286" cx="74.18" cy="105.074" r="2.449"/>
		<path fill-rule="evenodd" clip-rule="evenodd" fill="#565759" d="M74.18,102.625c1.354,0,2.45,1.097,2.45,2.449
			s-1.096,2.449-2.45,2.449V102.625z"/>
	</g>
	<g>
		<g>
			<g>
				<rect x="32.414" y="75.553" fill-rule="evenodd" clip-rule="evenodd" fill="#D8BD76" width="24.632" height="20.899"/>
				<rect x="44.731" y="75.553" fill-rule="evenodd" clip-rule="evenodd" fill="#C4AA68" width="12.314" height="20.899"/>
				<rect x="31.807" y="75.225" fill-rule="evenodd" clip-rule="evenodd" fill="#E7D691" width="25.847" height="3.703"/>
				<rect x="44.731" y="75.225" fill-rule="evenodd" clip-rule="evenodd" fill="#D8BD76" width="12.923" height="3.703"/>
			</g>
			<g>
				<rect x="33.833" y="80.635" fill-rule="evenodd" clip-rule="evenodd" fill="#DFE9F2" width="8.39" height="3.806"/>
				<g>
					<rect x="40.717" y="81.123" fill-rule="evenodd" clip-rule="evenodd" fill="#818286" width="0.892" height="2.831"/>
					<rect x="39.126" y="81.123" fill-rule="evenodd" clip-rule="evenodd" fill="#818286" width="0.892" height="2.831"/>
					<rect x="37.48" y="81.123" fill-rule="evenodd" clip-rule="evenodd" fill="#818286" width="0.892" height="2.831"/>
					<rect x="35.974" y="81.123" fill-rule="evenodd" clip-rule="evenodd" fill="#818286" width="0.891" height="2.831"/>
					<rect x="34.446" y="81.123" fill-rule="evenodd" clip-rule="evenodd" fill="#818286" width="0.892" height="2.831"/>
				</g>
			</g>
		</g>
		<g>
			<g>
				<rect x="58.642" y="75.553" fill-rule="evenodd" clip-rule="evenodd" fill="#D8BD76" width="24.632" height="20.899"/>
				<rect x="70.958" y="75.553" fill-rule="evenodd" clip-rule="evenodd" fill="#C4AA68" width="12.315" height="20.899"/>
				<rect x="58.034" y="75.225" fill-rule="evenodd" clip-rule="evenodd" fill="#E7D691" width="25.848" height="3.703"/>
				<rect x="70.958" y="75.225" fill-rule="evenodd" clip-rule="evenodd" fill="#D8BD76" width="12.923" height="3.703"/>
			</g>
			<g>
				<rect x="60.061" y="80.635" fill-rule="evenodd" clip-rule="evenodd" fill="#DFE9F2" width="8.389" height="3.806"/>
				<g>
					<rect x="66.946" y="81.123" fill-rule="evenodd" clip-rule="evenodd" fill="#818286" width="0.891" height="2.831"/>
					<rect x="65.353" y="81.123" fill-rule="evenodd" clip-rule="evenodd" fill="#818286" width="0.892" height="2.831"/>
					<rect x="63.708" y="81.123" fill-rule="evenodd" clip-rule="evenodd" fill="#818286" width="0.892" height="2.831"/>
					<rect x="62.201" y="81.123" fill-rule="evenodd" clip-rule="evenodd" fill="#818286" width="0.893" height="2.831"/>
					<rect x="60.674" y="81.123" fill-rule="evenodd" clip-rule="evenodd" fill="#818286" width="0.891" height="2.831"/>
				</g>
			</g>
		</g>
	</g>
	<g>
		<g>
			<rect x="45.528" y="54.212" fill-rule="evenodd" clip-rule="evenodd" fill="#D8BD76" width="24.632" height="20.899"/>
			<rect x="57.845" y="54.212" fill-rule="evenodd" clip-rule="evenodd" fill="#C4AA68" width="12.315" height="20.899"/>
			<rect x="44.92" y="53.885" fill-rule="evenodd" clip-rule="evenodd" fill="#E7D691" width="25.848" height="3.701"/>
			<rect x="57.845" y="53.885" fill-rule="evenodd" clip-rule="evenodd" fill="#D8BD76" width="12.923" height="3.701"/>
		</g>
		<g>
			<rect x="46.946" y="59.294" fill-rule="evenodd" clip-rule="evenodd" fill="#DFE9F2" width="8.39" height="3.807"/>
			<g>
				<rect x="53.831" y="59.782" fill-rule="evenodd" clip-rule="evenodd" fill="#818286" width="0.892" height="2.831"/>
				<rect x="52.24" y="59.782" fill-rule="evenodd" clip-rule="evenodd" fill="#818286" width="0.892" height="2.831"/>
				<rect x="50.595" y="59.782" fill-rule="evenodd" clip-rule="evenodd" fill="#818286" width="0.892" height="2.831"/>
				<rect x="49.088" y="59.782" fill-rule="evenodd" clip-rule="evenodd" fill="#818286" width="0.892" height="2.831"/>
				<rect x="47.56" y="59.782" fill-rule="evenodd" clip-rule="evenodd" fill="#818286" width="0.892" height="2.831"/>
			</g>
		</g>
	</g>
	<g>
		<path fill-rule="evenodd" clip-rule="evenodd" fill="#D5544F" d="M10.357,40.681h18.957c0.955,0,1.735,0.78,1.735,1.734v2.638
			c0,0.955-0.78,1.736-1.735,1.736H10.357c-0.955,0-1.736-0.781-1.736-1.736v-2.638C8.622,41.461,9.403,40.681,10.357,40.681z"/>
		<path fill-rule="evenodd" clip-rule="evenodd" fill="#B33C36" d="M31.05,43.735v1.318c0,0.955-0.986,1.736-2.191,1.736H10.813
			c-1.206,0-2.191-0.781-2.191-1.736v-1.318H31.05z"/>
	</g>
</g>
<path fill-rule="evenodd" clip-rule="evenodd" fill="#91CEBE" d="M57.977,103.256H57.16v-1.634h0.816V103.256L57.977,103.256z
	 M83.839,148.185h-0.856v0.816h0.856V148.185L83.839,148.185z M82.166,148.185v0.816h-1.632v-0.816H82.166L82.166,148.185z
	 M79.716,148.185v0.816h-1.632v-0.816H79.716L79.716,148.185z M77.266,148.185v0.816h-1.633v-0.816H77.266L77.266,148.185z
	 M74.816,148.185v0.816h-1.633v-0.816H74.816L74.816,148.185z M72.366,148.185v0.816h-1.632v-0.816H72.366L72.366,148.185z
	 M69.917,148.185v0.816h-1.633v-0.816H69.917L69.917,148.185z M67.466,148.185v0.816h-1.633v-0.816H67.466L67.466,148.185z
	 M65.017,148.185v0.816h-1.633v-0.816H65.017L65.017,148.185z M62.567,148.185v0.816h-1.633v-0.816H62.567L62.567,148.185z
	 M60.195,148.14c-0.425-0.066-0.944-0.316-1.265-0.603l-0.534,0.618c0.43,0.378,1.082,0.7,1.648,0.788L60.195,148.14L60.195,148.14z
	 M58.455,147.012c-0.28-0.43-0.426-0.812-0.47-1.325l-0.814,0.069c0.058,0.66,0.25,1.166,0.61,1.718L58.455,147.012L58.455,147.012z
	 M57.977,144.903H57.16v-1.632h0.816V144.903L57.977,144.903z M57.977,142.454H57.16v-1.633h0.816V142.454L57.977,142.454z
	 M57.977,140.003H57.16v-1.632h0.816V140.003L57.977,140.003z M57.977,137.555H57.16v-1.634h0.816V137.555L57.977,137.555z
	 M57.977,135.104H57.16v-1.633h0.816V135.104L57.977,135.104z M57.977,132.655H57.16v-1.633h0.816V132.655L57.977,132.655z
	 M57.977,130.205H57.16v-1.633h0.816V130.205L57.977,130.205z M57.977,127.755H57.16v-1.634h0.816V127.755L57.977,127.755z
	 M57.977,125.305H57.16v-1.634h0.816V125.305L57.977,125.305z M57.977,122.854H57.16v-1.633h0.816V122.854L57.977,122.854z
	 M57.977,120.405H57.16v-1.634h0.816V120.405L57.977,120.405z M57.977,117.955H57.16v-1.633h0.816V117.955L57.977,117.955z
	 M57.977,115.504H57.16v-1.632h0.816V115.504L57.977,115.504z M57.977,113.056H57.16v-1.633h0.816V113.056L57.977,113.056z
	 M57.977,110.605H57.16v-1.633h0.816V110.605L57.977,110.605z M57.977,108.156H57.16v-1.634h0.816V108.156L57.977,108.156z
	 M57.977,105.706H57.16v-1.633h0.816V105.706z"/>
<path fill-rule="evenodd" clip-rule="evenodd" fill="#91CEBE" d="M128.895,160.054h0.817v1.634h-0.817V160.054L128.895,160.054z
	 M88.679,139.625h0.511v-0.816h-0.511V139.625L88.679,139.625z M90.006,139.625v-0.816h1.634v0.816H90.006L90.006,139.625z
	 M92.456,139.625v-0.816h1.634v0.816H92.456L92.456,139.625z M94.905,139.625v-0.816h1.634v0.816H94.905L94.905,139.625z
	 M97.356,139.625v-0.816h1.633v0.816H97.356L97.356,139.625z M99.806,139.625v-0.816h1.633v0.816H99.806L99.806,139.625z
	 M102.255,139.625v-0.816h1.634v0.816H102.255L102.255,139.625z M104.705,139.625v-0.816h1.634v0.816H104.705L104.705,139.625z
	 M107.156,139.625v-0.816h1.633v0.816H107.156L107.156,139.625z M109.605,139.625v-0.816h1.633v0.816H109.605L109.605,139.625z
	 M112.055,139.625v-0.816h1.633v0.816H112.055L112.055,139.625z M114.505,139.625v-0.816h1.634v0.816H114.505L114.505,139.625z
	 M116.956,139.625v-0.816h1.633v0.816H116.956L116.956,139.625z M119.405,139.625v-0.816h1.633v0.816H119.405L119.405,139.625z
	 M121.855,139.625v-0.816h1.633v0.816H121.855L121.855,139.625z M124.305,139.625v-0.816h1.633v0.816H124.305L124.305,139.625z
	 M126.676,139.668c0.425,0.065,0.945,0.318,1.266,0.604l0.533-0.618c-0.429-0.377-1.082-0.701-1.647-0.788L126.676,139.668
	L126.676,139.668z M128.417,140.797c0.28,0.43,0.427,0.812,0.471,1.325l0.814-0.068c-0.057-0.66-0.25-1.166-0.61-1.718
	L128.417,140.797L128.417,140.797z M128.895,142.905h0.817v1.634h-0.817V142.905L128.895,142.905z M128.895,145.355h0.817v1.632
	h-0.817V145.355L128.895,145.355z M128.895,147.806h0.817v1.633h-0.817V147.806L128.895,147.806z M128.895,150.255h0.817v1.634
	h-0.817V150.255L128.895,150.255z M128.895,152.705h0.817v1.633h-0.817V152.705L128.895,152.705z M128.895,155.154h0.817v1.634
	h-0.817V155.154L128.895,155.154z M128.895,157.604h0.817v1.633h-0.817V157.604z"/>
<g>
	<rect x="61.524" y="163.91" fill-rule="evenodd" clip-rule="evenodd" fill="#565759" width="41.16" height="3.165"/>
	<rect x="82.104" y="163.91" fill-rule="evenodd" clip-rule="evenodd" fill="#444445" width="20.58" height="3.165"/>
	<g>
		<g>
			<rect x="67.549" y="133.601" fill-rule="evenodd" clip-rule="evenodd" fill="#D8BD76" width="29.11" height="24.698"/>
			<rect x="82.104" y="133.601" fill-rule="evenodd" clip-rule="evenodd" fill="#C4AA68" width="14.555" height="24.698"/>
			<rect x="66.831" y="133.213" fill-rule="evenodd" clip-rule="evenodd" fill="#E7D691" width="30.546" height="4.375"/>
			<rect x="82.104" y="133.213" fill-rule="evenodd" clip-rule="evenodd" fill="#D8BD76" width="15.272" height="4.375"/>
		</g>
		<g>
			<rect x="69.225" y="139.606" fill-rule="evenodd" clip-rule="evenodd" fill="#DFE9F2" width="9.916" height="4.498"/>
			<g>
				<rect x="77.362" y="140.183" fill-rule="evenodd" clip-rule="evenodd" fill="#818286" width="1.054" height="3.346"/>
				<rect x="75.48" y="140.183" fill-rule="evenodd" clip-rule="evenodd" fill="#818286" width="1.054" height="3.346"/>
				<rect x="73.537" y="140.183" fill-rule="evenodd" clip-rule="evenodd" fill="#818286" width="1.054" height="3.346"/>
				<rect x="71.755" y="140.183" fill-rule="evenodd" clip-rule="evenodd" fill="#818286" width="1.055" height="3.346"/>
				<rect x="69.95" y="140.183" fill-rule="evenodd" clip-rule="evenodd" fill="#818286" width="1.054" height="3.346"/>
			</g>
		</g>
	</g>
	<rect x="58.823" y="158.322" fill-rule="evenodd" clip-rule="evenodd" fill="#818286" width="46.562" height="5.774"/>
	<rect x="82.104" y="158.322" fill-rule="evenodd" clip-rule="evenodd" fill="#565759" width="23.281" height="5.774"/>
	<rect x="93.745" y="119.583" fill-rule="evenodd" clip-rule="evenodd" fill="#818286" width="20.021" height="13.038"/>
	<rect x="103.755" y="119.583" fill-rule="evenodd" clip-rule="evenodd" fill="#565759" width="10.01" height="13.038"/>
	<rect x="102.125" y="128.709" fill-rule="evenodd" clip-rule="evenodd" fill="#818286" width="3.26" height="35.388"/>
	<rect x="103.755" y="128.709" fill-rule="evenodd" clip-rule="evenodd" fill="#565759" width="1.63" height="35.388"/>
	<rect x="95.607" y="121.026" fill-rule="evenodd" clip-rule="evenodd" fill="#91CEBE" width="16.296" height="10.151"/>
	<rect x="103.755" y="121.026" fill-rule="evenodd" clip-rule="evenodd" fill="#81B1A3" width="8.147" height="10.151"/>
	<path fill-rule="evenodd" clip-rule="evenodd" fill="#DFE9F2" d="M97.778,124.432h1.914c0.692,0,0.974,0.06,0.974,0.579
		c0,0.64-2.127,2.361-2.82,2.822v1.436h4.478v-1.488h-1.794c0.53-0.476,1.794-1.619,1.794-2.795c0-1.196-0.615-2.049-1.948-2.049
		c-1.23,0-1.896,0.103-2.597,0.257V124.432L97.778,124.432z M102.973,129.072c0,0.12,0.086,0.197,0.205,0.197h0.966
		c0.12,0,0.213-0.043,0.213-0.197v-1c0-0.137-0.06-0.213-0.213-0.213h-0.966c-0.137,0-0.205,0.085-0.205,0.213V129.072
		L102.973,129.072z M102.973,125.953c0,0.12,0.086,0.197,0.205,0.197h0.966c0.12,0,0.213-0.043,0.213-0.197v-1
		c0-0.137-0.06-0.213-0.213-0.213h-0.966c-0.137,0-0.205,0.085-0.205,0.213V125.953L102.973,125.953z M105.092,127.629
		c0,1.023,0.539,1.64,1.65,1.64h1.4c1.025,0,1.59-0.624,1.59-1.64v-2.967c0-0.888-0.343-1.64-1.581-1.64h-1.401
		c-1.069,0-1.658,0.615-1.658,1.726V127.629L105.092,127.629z M106.75,127.278v-2.276c0-0.11-0.017-0.494,0.427-0.494h0.487
		c0.23,0,0.41,0.101,0.41,0.494v2.285c0,0.459-0.197,0.494-0.478,0.494h-0.359C107.049,127.781,106.75,127.755,106.75,127.278z"/>
	<path fill-rule="evenodd" clip-rule="evenodd" fill="#CCD7E0" d="M103.755,129.267h0.389c0.12,0,0.213-0.042,0.213-0.195v-1
		c0-0.137-0.06-0.213-0.213-0.213h-0.389V129.267L103.755,129.267z M103.755,126.148h0.389c0.12,0,0.213-0.042,0.213-0.196v-1
		c0-0.137-0.06-0.213-0.213-0.213h-0.389V126.148L103.755,126.148z M105.093,127.629c0,1.023,0.538,1.638,1.649,1.638h1.401
		c1.025,0,1.59-0.624,1.59-1.638v-2.969c0-0.886-0.342-1.639-1.581-1.639h-1.402c-1.068,0-1.657,0.615-1.657,1.724V127.629
		L105.093,127.629z M106.75,127.278v-2.276c0-0.11-0.017-0.494,0.427-0.494h0.487c0.23,0,0.411,0.101,0.411,0.494v2.285
		c0,0.459-0.197,0.494-0.479,0.494h-0.359C107.049,127.781,106.75,127.755,106.75,127.278z"/>
</g>
<path fill-rule="evenodd" clip-rule="evenodd" fill="#91CEBE" d="M129.712,154.35h-0.817v-1.633h0.817V154.35L129.712,154.35z
	 M88.679,175.597h0.511v-0.817h-0.511V175.597L88.679,175.597z M90.006,175.597v-0.817h1.634v0.817H90.006L90.006,175.597z
	 M92.456,175.597v-0.817h1.634v0.817H92.456L92.456,175.597z M94.905,175.597v-0.817h1.634v0.817H94.905L94.905,175.597z
	 M97.356,175.597v-0.817h1.633v0.817H97.356L97.356,175.597z M99.806,175.597v-0.817h1.633v0.817H99.806L99.806,175.597z
	 M102.255,175.597v-0.817h1.634v0.817H102.255L102.255,175.597z M104.705,175.597v-0.817h1.634v0.817H104.705L104.705,175.597z
	 M107.156,175.597v-0.817h1.633v0.817H107.156L107.156,175.597z M109.605,175.597v-0.817h1.633v0.817H109.605L109.605,175.597z
	 M112.055,175.597v-0.817h1.633v0.817H112.055L112.055,175.597z M114.505,175.597v-0.817h1.634v0.817H114.505L114.505,175.597z
	 M116.956,175.597v-0.817h1.633v0.817H116.956L116.956,175.597z M119.405,175.597v-0.817h1.633v0.817H119.405L119.405,175.597z
	 M121.855,175.597v-0.817h1.633v0.817H121.855L121.855,175.597z M124.305,175.597v-0.817h1.633v0.817H124.305L124.305,175.597z
	 M126.827,175.539c0.565-0.088,1.218-0.411,1.647-0.788l-0.533-0.619c-0.32,0.288-0.84,0.538-1.266,0.604L126.827,175.539
	L126.827,175.539z M129.091,174.067c0.36-0.551,0.553-1.059,0.61-1.718l-0.814-0.067c-0.044,0.512-0.19,0.896-0.471,1.324
	L129.091,174.067L129.091,174.067z M129.712,171.499h-0.817v-1.633h0.817V171.499L129.712,171.499z M129.712,169.05h-0.817v-1.634
	h0.817V169.05L129.712,169.05z M129.712,166.6h-0.817v-1.633h0.817V166.6L129.712,166.6z M129.712,164.148h-0.817v-1.632h0.817
	V164.148L129.712,164.148z M129.712,161.7h-0.817v-1.633h0.817V161.7L129.712,161.7z M129.712,159.249h-0.817v-1.632h0.817V159.249
	L129.712,159.249z M129.712,156.801h-0.817v-1.635h0.817V156.801z"/>
<path fill-rule="evenodd" clip-rule="evenodd" fill="#91CEBE" d="M17.468,196.029h0.816v1.634h-0.816V196.029L17.468,196.029z
	 M90.821,174.783h-0.982v0.816h0.982V174.783L90.821,174.783z M89.022,174.783v0.816h-1.633v-0.816H89.022L89.022,174.783z
	 M86.573,174.783v0.816h-1.633v-0.816H86.573L86.573,174.783z M84.123,174.783v0.816H82.49v-0.816H84.123L84.123,174.783z
	 M81.672,174.783v0.816h-1.633v-0.816H81.672L81.672,174.783z M79.223,174.783v0.816H77.59v-0.816H79.223L79.223,174.783z
	 M76.773,174.783v0.816H75.14v-0.816H76.773L76.773,174.783z M74.323,174.783v0.816H72.69v-0.816H74.323L74.323,174.783z
	 M71.874,174.783v0.816H70.24v-0.816H71.874L71.874,174.783z M69.424,174.783v0.816h-1.633v-0.816H69.424L69.424,174.783z
	 M66.973,174.783v0.816H65.34v-0.816H66.973L66.973,174.783z M64.523,174.783v0.816H62.89v-0.816H64.523L64.523,174.783z
	 M62.074,174.783v0.816H60.44v-0.816H62.074L62.074,174.783z M59.624,174.783v0.816h-1.633v-0.816H59.624L59.624,174.783z
	 M57.173,174.783v0.816h-1.632v-0.816H57.173L57.173,174.783z M54.724,174.783v0.816h-1.633v-0.816H54.724L54.724,174.783z
	 M52.274,174.783v0.816h-1.633v-0.816H52.274L52.274,174.783z M49.824,174.783v0.816h-1.633v-0.816H49.824L49.824,174.783z
	 M47.375,174.783v0.816h-1.633v-0.816H47.375L47.375,174.783z M44.924,174.783v0.816h-1.633v-0.816H44.924L44.924,174.783z
	 M42.474,174.783v0.816h-1.633v-0.816H42.474L42.474,174.783z M40.024,174.783v0.816h-1.633v-0.816H40.024L40.024,174.783z
	 M37.575,174.783v0.816h-1.633v-0.816H37.575L37.575,174.783z M35.125,174.783v0.816h-1.633v-0.816H35.125L35.125,174.783z
	 M32.674,174.783v0.816h-1.633v-0.816H32.674L32.674,174.783z M30.225,174.783v0.816h-1.633v-0.816H30.225L30.225,174.783z
	 M27.775,174.783v0.816h-1.633v-0.816H27.775L27.775,174.783z M25.325,174.783v0.816h-1.633v-0.816H25.325L25.325,174.783z
	 M22.875,174.783v0.816h-1.633v-0.816H22.875L22.875,174.783z M20.353,174.842c-0.565,0.087-1.218,0.41-1.648,0.786l0.533,0.62
	c0.321-0.287,0.84-0.539,1.266-0.604L20.353,174.842L20.353,174.842z M18.089,176.312c-0.361,0.553-0.554,1.059-0.61,1.718
	l0.814,0.069c0.044-0.514,0.189-0.896,0.47-1.325L18.089,176.312L18.089,176.312z M17.468,178.88h0.816v1.635h-0.816V178.88
	L17.468,178.88z M17.468,181.331h0.816v1.633h-0.816V181.331L17.468,181.331z M17.468,183.779h0.816v1.635h-0.816V183.779
	L17.468,183.779z M17.468,186.23h0.816v1.633h-0.816V186.23L17.468,186.23z M17.468,188.681h0.816v1.633h-0.816V188.681
	L17.468,188.681z M17.468,191.13h0.816v1.633h-0.816V191.13L17.468,191.13z M17.468,193.58h0.816v1.633h-0.816V193.58z"/>
<path fill-rule="evenodd" clip-rule="evenodd" fill="#91CEBE" d="M18.285,200.07h-0.816v-1.634h0.816V200.07L18.285,200.07z
	 M32.131,220.5h-1.09v0.816h1.09V220.5L32.131,220.5z M30.225,220.5v0.816h-1.633V220.5H30.225L30.225,220.5z M27.775,220.5v0.816
	h-1.633V220.5H27.775L27.775,220.5z M25.325,220.5v0.816h-1.633V220.5H25.325L25.325,220.5z M22.875,220.5v0.816h-1.633V220.5
	H22.875L22.875,220.5z M20.504,220.457c-0.425-0.066-0.945-0.318-1.266-0.604l-0.533,0.617c0.43,0.378,1.082,0.702,1.648,0.788
	L20.504,220.457L20.504,220.457z M18.763,219.327c-0.281-0.43-0.426-0.813-0.47-1.325l-0.814,0.068
	c0.057,0.66,0.25,1.166,0.61,1.718L18.763,219.327L18.763,219.327z M18.285,217.22h-0.816v-1.634h0.816V217.22L18.285,217.22z
	 M18.285,214.77h-0.816v-1.633h0.816V214.77L18.285,214.77z M18.285,212.32h-0.816v-1.634h0.816V212.32L18.285,212.32z
	 M18.285,209.87h-0.816v-1.633h0.816V209.87L18.285,209.87z M18.285,207.419h-0.816v-1.633h0.816V207.419L18.285,207.419z
	 M18.285,204.97h-0.816v-1.632h0.816V204.97L18.285,204.97z M18.285,202.52h-0.816v-1.633h0.816V202.52z"/>
<g>
	<polygon fill-rule="evenodd" clip-rule="evenodd" fill="#444445" points="74.872,236.922 74.872,193.934 70.813,193.934 
		70.813,236.922 72.217,236.922 72.217,209.325 73.468,209.325 73.468,236.922 	"/>
	<rect x="69.667" y="224.952" fill-rule="evenodd" clip-rule="evenodd" fill="#444445" width="7.807" height="11.97"/>
	<path fill-rule="evenodd" clip-rule="evenodd" fill="#565759" d="M53.509,221.413H41.323c-1.859,0-3.379,1.521-3.379,3.381l0,0
		c0,1.857,1.521,3.378,3.379,3.378h12.186c1.859,0,3.379-1.521,3.379-3.378l0,0C56.888,222.934,55.368,221.413,53.509,221.413z"/>
	<path fill-rule="evenodd" clip-rule="evenodd" fill="#565759" d="M45.695,221.881l-3.837-11.426
		c-0.461-1.375-1.963-2.122-3.338-1.661l0,0c-1.375,0.462-2.122,1.964-1.66,3.338l3.837,11.428c0.461,1.374,1.963,2.12,3.338,1.659
		l0,0C45.41,224.756,46.157,223.255,45.695,221.881z"/>
	<path fill-rule="evenodd" clip-rule="evenodd" fill="#565759" d="M68.246,220.347l2.298,8.075l-10.312,0.061
		C63.39,223.78,63.66,223.671,68.246,220.347z"/>
	<path fill-rule="evenodd" clip-rule="evenodd" fill="#565759" d="M66.793,222.78l-6.1-6.725c-0.391-0.432-1.084-0.469-1.496-0.057
		l0,0c-0.412,0.412-0.448,1.064-0.057,1.495l6.1,6.727c0.391,0.431,1.068,0.452,1.496,0.057l0,0
		C67.164,223.882,67.185,223.212,66.793,222.78z"/>
	<path fill-rule="evenodd" clip-rule="evenodd" fill="#444445" d="M55.229,217.016l5.542-5.136c0.667-0.616,1.717-0.576,2.335,0.09
		l0.001,0.001c0.617,0.666,0.577,1.717-0.09,2.334l-5.542,5.136c-0.667,0.618-1.717,0.577-2.334-0.09h-0.001
		C54.523,218.684,54.563,217.633,55.229,217.016z"/>
	<path fill-rule="evenodd" clip-rule="evenodd" fill="#565759" d="M58.394,194.362H38.286c-1.547,0-2.813,1.266-2.813,2.812v37.001
		c0,1.546,1.267,2.813,2.813,2.813h31.91c1.545,0,3.283-1.339,2.813-2.813l-11.802-37.001
		C60.736,195.701,59.94,194.362,58.394,194.362L58.394,194.362z M57.818,196.252c1.395,0,2.113,1.221,2.537,2.563l10.647,33.719
		c0.424,1.344-1.143,2.563-2.538,2.563H39.678c-1.395,0-2.537-1.153-2.537-2.563v-33.719c0-1.41,1.142-2.563,2.537-2.563H57.818z"/>
	<path fill-rule="evenodd" clip-rule="evenodd" fill="#91CEBE" d="M35.473,225.108v8.735c0,1.728,1.267,3.145,2.813,3.145h31.91
		c1.545,0,3.357-1.52,2.813-3.145l-2.614-7.8l-32.94-0.021C36.572,226.023,35.99,225.823,35.473,225.108z"/>
	<path fill-rule="evenodd" clip-rule="evenodd" fill="#91CEBE" d="M41.807,218.604H31.538c-1.27,0-2.308,1.038-2.308,2.307v9.332
		c0,1.271,1.039,2.309,2.308,2.309h10.269c1.269,0,2.307-1.038,2.307-2.309v-9.332C44.114,219.642,43.076,218.604,41.807,218.604z"
		/>
	<path fill-rule="evenodd" clip-rule="evenodd" fill="#81B1A3" d="M35.473,231.047v2.797c0,1.728,1.267,3.145,2.813,3.145h31.91
		c1.545,0,3.357-1.52,2.813-3.145l-0.938-2.797H35.473z"/>
	<g>
		<circle fill-rule="evenodd" clip-rule="evenodd" fill="#565759" cx="71.444" cy="236" r="6.499"/>
		<path fill-rule="evenodd" clip-rule="evenodd" fill="#444445" d="M71.444,229.501c3.588,0.001,6.498,2.91,6.498,6.499
			c0,3.588-2.909,6.498-6.498,6.498V229.501z"/>
		<circle fill-rule="evenodd" clip-rule="evenodd" fill="#818286" cx="71.444" cy="235.999" r="2.559"/>
		<path fill-rule="evenodd" clip-rule="evenodd" fill="#565759" d="M71.444,233.44c1.413,0,2.558,1.146,2.558,2.56
			c0,1.412-1.145,2.558-2.558,2.558V233.44z"/>
		<path fill-rule="evenodd" clip-rule="evenodd" fill="#565759" d="M71.444,227.659c3.751,0,6.924,2.476,7.972,5.883h-1.133
			c-1.006-2.803-3.689-4.809-6.839-4.809c-3.151,0-5.833,2.006-6.84,4.809h-1.133C64.519,230.135,67.692,227.659,71.444,227.659z"/>
		<path fill-rule="evenodd" clip-rule="evenodd" fill="#444445" d="M71.444,227.659c3.751,0,6.924,2.476,7.972,5.883h-1.133
			c-1.006-2.803-3.689-4.809-6.839-4.809V227.659z"/>
	</g>
	<path fill-rule="evenodd" clip-rule="evenodd" fill="#81B1A3" d="M36.672,218.604h-5.134c-1.27,0-2.307,1.038-2.307,2.307v9.332
		c0,1.271,1.038,2.309,2.307,2.309h5.134V218.604z"/>
	<g>
		<circle fill-rule="evenodd" clip-rule="evenodd" fill="#565759" cx="35.089" cy="236" r="6.499"/>
		<path fill-rule="evenodd" clip-rule="evenodd" fill="#444445" d="M35.089,229.501c3.589,0.001,6.498,2.91,6.498,6.499
			c0,3.588-2.909,6.498-6.498,6.498V229.501z"/>
		<circle fill-rule="evenodd" clip-rule="evenodd" fill="#818286" cx="35.089" cy="235.999" r="2.559"/>
		<path fill-rule="evenodd" clip-rule="evenodd" fill="#565759" d="M35.089,233.44c1.414,0,2.558,1.146,2.558,2.56
			c0,1.412-1.145,2.558-2.558,2.558V233.44z"/>
		<path fill-rule="evenodd" clip-rule="evenodd" fill="#565759" d="M35.089,227.659c3.751,0,6.924,2.476,7.973,5.883H41.93
			c-1.008-2.803-3.69-4.809-6.841-4.809s-5.833,2.006-6.84,4.809h-1.132C28.165,230.135,31.337,227.659,35.089,227.659z"/>
		<path fill-rule="evenodd" clip-rule="evenodd" fill="#444445" d="M35.089,227.659c3.751,0,6.924,2.476,7.973,5.883H41.93
			c-1.008-2.803-3.69-4.809-6.841-4.809V227.659z"/>
	</g>
	<g>
		<g>
			<rect x="74.761" y="190.011" fill-rule="evenodd" clip-rule="evenodd" fill="#D8BD76" width="21.922" height="18.6"/>
			<rect x="85.723" y="190.011" fill-rule="evenodd" clip-rule="evenodd" fill="#C4AA68" width="10.961" height="18.6"/>
			<rect x="74.22" y="189.718" fill-rule="evenodd" clip-rule="evenodd" fill="#E7D691" width="23.004" height="3.296"/>
			<rect x="85.723" y="189.718" fill-rule="evenodd" clip-rule="evenodd" fill="#D8BD76" width="11.502" height="3.296"/>
		</g>
		<g>
			<rect x="76.023" y="194.534" fill-rule="evenodd" clip-rule="evenodd" fill="#DFE9F2" width="7.467" height="3.388"/>
			<g>
				<rect x="82.151" y="194.967" fill-rule="evenodd" clip-rule="evenodd" fill="#818286" width="0.794" height="2.521"/>
				<rect x="80.734" y="194.967" fill-rule="evenodd" clip-rule="evenodd" fill="#818286" width="0.793" height="2.521"/>
				<rect x="79.271" y="194.967" fill-rule="evenodd" clip-rule="evenodd" fill="#818286" width="0.793" height="2.521"/>
				<rect x="77.93" y="194.967" fill-rule="evenodd" clip-rule="evenodd" fill="#818286" width="0.793" height="2.521"/>
				<rect x="76.569" y="194.967" fill-rule="evenodd" clip-rule="evenodd" fill="#818286" width="0.793" height="2.521"/>
			</g>
		</g>
	</g>
	<polygon fill-rule="evenodd" clip-rule="evenodd" fill="#444445" points="97.588,208.591 70.813,208.591 70.813,210.516 
		101.662,210.516 	"/>
</g>
<path fill-rule="evenodd" clip-rule="evenodd" fill="#91CEBE" d="M48.311,140.287v21.862H21.106v-21.862H48.311L48.311,140.287z
	 M30.324,143.893v3.243h1.021v-3.243H30.324L30.324,143.893z M28.5,143.893v3.243h1.022v-3.243H28.5L28.5,143.893z M26.616,143.893
	v3.243h1.021v-3.243H26.616L26.616,143.893z M24.889,143.893v3.243h1.022v-3.243H24.889L24.889,143.893z M23.139,143.893v3.243
	h1.021v-3.243H23.139L23.139,143.893z M13.969,163.001h41.479v3.355H13.969V163.001L13.969,163.001z M20.435,134.518h28.548v4.819
	H20.435V134.518L20.435,134.518z M55.448,167.422v3.444h-7.863v-3.444H55.448L55.448,167.422z M21.832,167.422v3.444h-7.863v-3.444
	H21.832L21.832,167.422z M22.436,143.334v4.359h9.612v-4.359H22.436z"/>
</svg>
