<?xml version="1.0" encoding="utf-8"?>
<!-- Generator: Adobe Illustrator 16.0.0, SVG Export Plug-In . SVG Version: 6.00 Build 0)  -->
<!DOCTYPE svg PUBLIC "-//W3C//DTD SVG 1.1//EN" "http://www.w3.org/Graphics/SVG/1.1/DTD/svg11.dtd">
<svg version="1.1" id="Layer_1" xmlns="http://www.w3.org/2000/svg" xmlns:xlink="http://www.w3.org/1999/xlink" x="0px" y="0px"
	 width="300px" height="300px" viewBox="0 0 300 300" enable-background="new 0 0 300 300" xml:space="preserve">
<path fill-rule="evenodd" clip-rule="evenodd" fill="#009292" d="M266.593,11.514c0.521,0.082,1.035,0.184,1.542,0.306l-0.136,0.506
	L266.593,11.514L266.593,11.514z M262.655,43.576h1.684v2.948h-1.684V43.576L262.655,43.576z M271.365,44.367l-0.313,0.18
	l-0.885-1.531l0.314-0.181L271.365,44.367L271.365,44.367z M255.629,44.367l0.312,0.18l0.884-1.531l-0.312-0.181L255.629,44.367
	L255.629,44.367z M276.944,38.656l-0.182,0.313l-1.531-0.883l0.181-0.313L276.944,38.656L276.944,38.656z M275.231,24.116
	l0.181,0.314l1.531-0.884l-0.181-0.313L275.231,24.116L275.231,24.116z M278.919,30.258v1.684h-2.946v-1.684H278.919L278.919,30.258
	z M267.066,44.998l0.288-0.078l0.277,1.04l-0.287,0.078L267.066,44.998L267.066,44.998z M273.537,41.351l0.21-0.211l0.761,0.761
	l-0.21,0.21L273.537,41.351L273.537,41.351z M277.317,34.958l0.076-0.288l1.04,0.279l-0.078,0.288L277.317,34.958L277.317,34.958z
	 M273.747,21.06l-0.21-0.21l0.761-0.761l0.21,0.21L273.747,21.06L273.747,21.06z M259.647,46.038l-0.286-0.078l0.277-1.04
	l0.288,0.078L259.647,46.038L259.647,46.038z M262.655,15.677h1.684v2.947h-1.684V15.677L262.655,15.677z M256.826,19.185
	l-0.313,0.18l-0.884-1.531l0.312-0.181L256.826,19.185L256.826,19.185z M270.167,19.185l0.314,0.18l0.884-1.531l-0.313-0.181
	L270.167,19.185L270.167,19.185z M251.762,24.116l-0.18,0.314l-1.533-0.884l0.182-0.313L251.762,24.116L251.762,24.116z
	 M250.049,38.656l0.182,0.313l1.531-0.883l-0.18-0.313L250.049,38.656L250.049,38.656z M251.021,30.258v1.684h-2.948v-1.684H251.021
	L251.021,30.258z M259.361,16.242l0.286-0.077l0.279,1.038l-0.288,0.078L259.361,16.242L259.361,16.242z M252.485,20.299l0.211-0.21
	l0.761,0.761l-0.212,0.21L252.485,20.299L252.485,20.299z M248.561,27.253l0.077-0.288l1.038,0.277l-0.077,0.288L248.561,27.253
	L248.561,27.253z M277.394,27.531l-0.076-0.288l1.038-0.277l0.078,0.288L277.394,27.531L277.394,27.531z M248.638,35.236
	l-0.077-0.288l1.038-0.279l0.077,0.288L248.638,35.236L248.638,35.236z M252.696,42.111l-0.211-0.21l0.76-0.761l0.212,0.211
	L252.696,42.111L252.696,42.111z M267.354,17.28l-0.288-0.078l0.278-1.038l0.287,0.077L267.354,17.28L267.354,17.28z
	 M277.722,29.219l-0.043-0.295l1.065-0.151l0.042,0.294L277.722,29.219L277.722,29.219z M248.248,33.429l-0.04-0.295l1.063-0.151
	l0.042,0.294L248.248,33.429L248.248,33.429z M274.962,22.474l-0.182-0.236l0.853-0.655l0.183,0.236L274.962,22.474L274.962,22.474z
	 M251.358,40.619l-0.18-0.237l0.852-0.655l0.182,0.236L251.358,40.619L251.358,40.619z M276.735,25.569l-0.117-0.274l0.987-0.425
	l0.119,0.274L276.735,25.569L276.735,25.569z M249.386,37.331l-0.116-0.274l0.987-0.425l0.118,0.274L249.386,37.331L249.386,37.331z
	 M272.306,19.774l-0.235-0.181l0.649-0.855l0.237,0.181L272.306,19.774L272.306,19.774z M254.272,43.462l-0.236-0.18l0.65-0.855
	l0.237,0.179L254.272,43.462L254.272,43.462z M269.081,17.883l-0.275-0.113l0.408-0.994l0.273,0.113L269.081,17.883L269.081,17.883z
	 M257.78,45.426l-0.276-0.112l0.408-0.996l0.276,0.114L257.78,45.426L257.78,45.426z M265.652,16.915l-0.294-0.042l0.149-1.064
	l0.295,0.042L265.652,16.915L265.652,16.915z M261.485,46.393l-0.295-0.042l0.15-1.065l0.295,0.041L261.485,46.393L261.485,46.393z
	 M261.561,16.883l-0.295,0.043l-0.156-1.063l0.296-0.043L261.561,16.883L261.561,16.883z M265.883,46.338l-0.294,0.043l-0.156-1.064
	l0.293-0.042L265.883,46.338L265.883,46.338z M258.205,17.764l-0.276,0.113l-0.407-0.995l0.275-0.113L258.205,17.764L258.205,17.764
	z M269.472,45.319l-0.276,0.114l-0.406-0.995l0.276-0.112L269.472,45.319L269.472,45.319z M254.963,19.565l-0.235,0.179
	l-0.649-0.858l0.237-0.179L254.963,19.565L254.963,19.565z M272.914,43.314l-0.236,0.18l-0.648-0.858l0.237-0.18L272.914,43.314
	L272.914,43.314z M252.305,22.123l-0.186,0.234l-0.846-0.664l0.186-0.234L252.305,22.123L252.305,22.123z M275.718,40.509
	l-0.183,0.234l-0.846-0.664l0.184-0.234L275.718,40.509L275.718,40.509z M250.31,25.444l-0.115,0.275l-0.991-0.413l0.114-0.275
	L250.31,25.444L250.31,25.444z M277.789,36.896l-0.114,0.276l-0.991-0.414l0.114-0.274L277.789,36.896L277.789,36.896z
	 M249.321,28.883l-0.045,0.295l-1.063-0.155l0.043-0.295L249.321,28.883L249.321,28.883z M278.78,33.179l-0.044,0.294l-1.063-0.154
	l0.043-0.295L278.78,33.179L278.78,33.179z M264.135,29.13l-0.6-6.115h-0.077l-0.622,6.122c-0.819,0.275-1.409,1.05-1.409,1.963
	c0,0.645,0.295,1.22,0.757,1.6l-5.194,8.995l0.427,0.247l5.184-8.974c0.271,0.13,0.575,0.203,0.896,0.203
	c1.144,0,2.07-0.927,2.07-2.07c0-0.031,0-0.062-0.002-0.092l8.631-5.816l-0.04-0.068l-9.157,4.55
	C264.764,29.428,264.467,29.238,264.135,29.13L264.135,29.13z M263.496,29.565c0.848,0,1.535,0.688,1.535,1.536
	c0,0.847-0.688,1.535-1.535,1.535s-1.534-0.688-1.534-1.535C261.962,30.252,262.648,29.565,263.496,29.565L263.496,29.565z
	 M267.05,12.684l-2.553-1.474l-2.552-1.474v1.599c-10.226,0.791-18.275,9.338-18.275,19.767c0,10.949,8.877,19.826,19.826,19.826
	c10.95,0,19.827-8.877,19.827-19.826h-2.784c0,9.412-7.631,17.042-17.043,17.042c-9.413,0-17.043-7.63-17.043-17.042
	c0-8.89,6.807-16.188,15.492-16.972v1.501l2.552-1.473L267.05,12.684L267.05,12.684z M267.801,13.066l-0.388,1.445
	c-0.524-0.123-1.059-0.223-1.601-0.297L267.801,13.066L267.801,13.066z M269.119,12.083c1.349,0.398,2.637,0.936,3.848,1.595
	l-1.393,2.413c-1.003-0.541-2.065-0.984-3.175-1.317L269.119,12.083L269.119,12.083z M273.848,14.189
	c1.19,0.729,2.296,1.581,3.303,2.538l-1.969,1.97c-0.835-0.786-1.747-1.488-2.725-2.094L273.848,14.189L273.848,14.189z
	 M277.87,17.447c0.956,1.005,1.81,2.112,2.538,3.301l-2.413,1.394c-0.606-0.979-1.309-1.892-2.094-2.725L277.87,17.447
	L277.87,17.447z M280.918,21.631c0.659,1.211,1.197,2.499,1.596,3.846l-2.693,0.721c-0.331-1.111-0.774-2.173-1.316-3.175
	L280.918,21.631L280.918,21.631z M282.775,26.462c0.319,1.329,0.505,2.267,0.54,3.685h-2.784c-0.035-1.169-0.188-1.865-0.447-2.963
	L282.775,26.462z"/>
<path opacity="0.3" fill-rule="evenodd" clip-rule="evenodd" fill="#009292" d="M206.861,102.997v8.154h9.643l37.589,26.343
	l-17.101,74.015l-52.759,32.756l-50.282-30.278H34.057V102.997H206.861L206.861,102.997z M128.625,145.508l14.081,59.571
	l41.439,42.46l41.44-42.46l13.432-59.571l-29.523-21.2h-50.695L128.625,145.508L128.625,145.508z M118.365,139.707l16.699,69.811
	l49.141,49.757l49.142-49.757l15.93-69.811l-35.012-24.846h-60.117L118.365,139.707L118.365,139.707z M92.608,125.209v19.989h6.488
	v-19.989H92.608L92.608,125.209z M81.024,125.209v19.989h6.489v-19.989H81.024L81.024,125.209z M69.056,125.209v19.989h6.488
	v-19.989H69.056L69.056,125.209z M58.088,125.209v19.989h6.489v-19.989H58.088L58.088,125.209z M46.967,125.209v19.989h6.489
	v-19.989H46.967L46.967,125.209z M29.791,67.437h181.334v29.695H29.791V67.437L29.791,67.437z M42.504,121.767v26.873h61.058
	v-26.873H42.504z"/>
<g>
	<path fill-rule="evenodd" clip-rule="evenodd" fill="#91CEBE" d="M220.472,191.059h9.659c8.211,0,14.93,4.052,14.93,9.002v1.364
		c0,4.951-6.719,9.003-14.93,9.003h-9.659V191.059z"/>
	<path fill-rule="evenodd" clip-rule="evenodd" fill="#565759" d="M134.365,228.246h129.663c1.104,0,2.005,0.901,2.005,2.002v14.276
		c0,1.101-0.903,2.003-2.005,2.003H134.365c-1.101,0-2.002-0.901-2.002-2.003v-14.276
		C132.363,229.146,133.264,228.246,134.365,228.246z"/>
	<path fill-rule="evenodd" clip-rule="evenodd" fill="#444445" d="M266.033,237.385v7.14c0,1.101-0.903,2.003-2.005,2.003H134.365
		c-1.101,0-2.002-0.901-2.002-2.003v-7.14H266.033z"/>
	<path fill-rule="evenodd" clip-rule="evenodd" fill="#91CEBE" d="M267.304,224.271v8.138c0,1.859-1.521,3.381-3.383,3.381h-10.55
		l-4.475-5.321c-0.554-0.657-1.488-0.97-2.348-0.97h-26.077v-33.026c11.771,0,23.542,0,35.313,0c6.335,0,11.52,5.183,11.52,11.52
		C267.304,213.418,267.304,218.844,267.304,224.271z"/>
	<g>
		<g>
			<path fill-rule="evenodd" clip-rule="evenodd" fill="#565759" d="M241.068,255.867c6.043,0,10.973-4.931,10.973-10.973
				c0-6.045-4.93-10.975-10.973-10.975c-6.044,0-10.974,4.93-10.974,10.975C230.095,250.937,235.024,255.867,241.068,255.867z"/>
			<path fill-rule="evenodd" clip-rule="evenodd" fill="#444445" d="M241.068,233.92c6.062,0,10.973,4.914,10.973,10.975
				c0,6.059-4.911,10.972-10.973,10.972V233.92z"/>
			<path fill-rule="evenodd" clip-rule="evenodd" fill="#818286" d="M241.068,249.214c2.38,0,4.319-1.941,4.319-4.319
				c0-2.38-1.939-4.321-4.319-4.321c-2.379,0-4.32,1.941-4.32,4.321C236.748,247.272,238.689,249.214,241.068,249.214z"/>
			<path fill-rule="evenodd" clip-rule="evenodd" fill="#565759" d="M241.068,240.573c2.386,0,4.319,1.934,4.319,4.321
				c0,2.385-1.934,4.318-4.319,4.319V240.573z"/>
		</g>
		<polygon fill-rule="evenodd" clip-rule="evenodd" fill="#818286" points="226.945,246.696 226.945,237.371 227.011,236.92 
			227.356,236.631 234.251,230.874 234.578,230.601 235.009,230.601 247.127,230.601 247.558,230.601 247.886,230.873 
			254.779,236.631 255.126,236.92 255.191,237.371 255.191,246.696 252.854,247.027 252.919,238.154 246.696,232.958 
			235.441,232.958 229.218,238.154 229.283,247.027 		"/>
		<polygon fill-rule="evenodd" clip-rule="evenodd" fill="#565759" points="241.068,230.601 247.127,230.601 247.558,230.601 
			247.886,230.873 254.779,236.631 255.126,236.92 255.191,237.371 255.191,246.696 252.854,247.027 252.919,238.154 
			246.696,232.958 241.068,232.958 		"/>
	</g>
	<g>
		<g>
			<path fill-rule="evenodd" clip-rule="evenodd" fill="#565759" d="M158.249,255.867c6.042,0,10.972-4.931,10.972-10.973
				c0-6.045-4.93-10.975-10.972-10.975c-6.044,0-10.974,4.93-10.974,10.975C147.275,250.937,152.205,255.867,158.249,255.867z"/>
			<path fill-rule="evenodd" clip-rule="evenodd" fill="#444445" d="M158.249,233.92c6.061,0,10.972,4.914,10.972,10.975
				c0,6.059-4.911,10.972-10.972,10.972V233.92z"/>
			<path fill-rule="evenodd" clip-rule="evenodd" fill="#818286" d="M158.249,249.214c2.38,0,4.32-1.941,4.32-4.319
				c0-2.38-1.94-4.321-4.32-4.321s-4.32,1.941-4.32,4.321C153.929,247.272,155.869,249.214,158.249,249.214z"/>
			<path fill-rule="evenodd" clip-rule="evenodd" fill="#565759" d="M158.249,240.573c2.386,0,4.32,1.934,4.32,4.321
				c0,2.385-1.935,4.318-4.32,4.319V240.573z"/>
		</g>
		<polygon fill-rule="evenodd" clip-rule="evenodd" fill="#818286" points="144.126,246.696 144.126,237.371 144.191,236.92 
			144.537,236.631 151.432,230.874 151.759,230.601 152.189,230.601 164.308,230.601 164.74,230.601 165.066,230.873 
			171.962,236.631 172.307,236.92 172.372,237.371 172.372,246.696 170.033,247.027 170.1,238.154 163.877,232.958 152.622,232.958 
			146.398,238.154 146.464,247.027 		"/>
		<polygon fill-rule="evenodd" clip-rule="evenodd" fill="#565759" points="158.249,230.601 164.308,230.601 164.74,230.601 
			165.066,230.873 171.962,236.631 172.307,236.92 172.372,237.371 172.372,246.696 170.033,247.027 170.1,238.154 163.877,232.958 
			158.249,232.958 		"/>
	</g>
	<path fill-rule="evenodd" clip-rule="evenodd" fill="#81B1A3" d="M267.304,224.271v8.138c0,1.859-1.521,3.381-3.383,3.381h-10.55
		l-4.475-5.321c-0.554-0.657-1.488-0.97-2.348-0.97h-26.077v-13.367h46.832V224.271z"/>
	<path fill-rule="evenodd" clip-rule="evenodd" fill="#91CEBE" d="M260.01,198.032h5.335c0.99,0,1.802,0.812,1.802,1.803v1.843
		c0,0.991-0.812,1.803-1.802,1.803h-5.335c-0.992,0-1.803-0.812-1.803-1.803v-1.843C258.207,198.844,259.018,198.032,260.01,198.032
		z"/>
	<path fill-rule="evenodd" clip-rule="evenodd" fill="#DFE9F2" d="M245.39,201.853h13.461c0.793,0,1.44,0.646,1.44,1.438v12.772
		c0,0.793-0.66,1.577-1.44,1.441l-13.461-2.367c-0.779-0.138-1.438-0.648-1.438-1.441v-10.405
		C243.951,202.499,244.598,201.853,245.39,201.853z"/>
	<path fill-rule="evenodd" clip-rule="evenodd" fill="#DFE9F2" d="M263.86,203.166h2.376c0.685,1.47,1.067,3.106,1.067,4.825v9.065
		l-3.443-0.604c-0.78-0.139-1.441-0.649-1.441-1.44v-10.405C262.419,203.814,263.067,203.166,263.86,203.166z"/>
	<rect x="134.493" y="187.89" fill-rule="evenodd" clip-rule="evenodd" fill="#CCD7E0" width="84.459" height="40.255"/>
	<rect x="134.493" y="208.018" fill-rule="evenodd" clip-rule="evenodd" fill="#B5BFC9" width="84.459" height="20.127"/>
</g>
<g>
	<polygon fill-rule="evenodd" clip-rule="evenodd" fill="#CCD7E0" points="121.732,142.826 122.904,140.191 124.076,137.557 
		126.42,137.557 128.763,137.557 129.936,140.191 131.107,142.826 129.936,145.461 128.763,148.096 126.42,148.096 124.076,148.096 
		122.904,145.461 	"/>
	<polygon fill-rule="evenodd" clip-rule="evenodd" fill="#B5BFC9" points="126.42,137.557 128.763,137.557 129.936,140.191 
		131.107,142.826 129.936,145.461 128.763,148.096 126.42,148.096 	"/>
	<rect x="82.099" y="163.473" fill-rule="evenodd" clip-rule="evenodd" fill="#E7D691" width="88.641" height="50.52"/>
	<rect x="126.42" y="163.473" fill-rule="evenodd" clip-rule="evenodd" fill="#D8BD76" width="44.32" height="50.52"/>
	<rect x="85.818" y="166.883" fill-rule="evenodd" clip-rule="evenodd" fill="#D8BD76" width="81.203" height="43.7"/>
	<rect x="126.42" y="166.883" fill-rule="evenodd" clip-rule="evenodd" fill="#C4AA68" width="40.602" height="43.7"/>
	<g>
		<rect x="124.589" y="166.46" fill-rule="evenodd" clip-rule="evenodd" fill="#E7D691" width="3.661" height="44.545"/>
		<rect x="103.436" y="166.46" fill-rule="evenodd" clip-rule="evenodd" fill="#E7D691" width="3.661" height="44.545"/>
		<rect x="92.744" y="166.46" fill-rule="evenodd" clip-rule="evenodd" fill="#E7D691" width="3.66" height="44.545"/>
		<rect x="114.206" y="166.46" fill-rule="evenodd" clip-rule="evenodd" fill="#E7D691" width="3.661" height="44.545"/>
		<g>
			<rect x="156.435" y="166.46" fill-rule="evenodd" clip-rule="evenodd" fill="#E7D691" width="3.661" height="44.545"/>
			<rect x="135.282" y="166.46" fill-rule="evenodd" clip-rule="evenodd" fill="#E7D691" width="3.661" height="44.545"/>
			<rect x="146.052" y="166.46" fill-rule="evenodd" clip-rule="evenodd" fill="#E7D691" width="3.661" height="44.545"/>
		</g>
	</g>
	<g>
		<rect x="126.42" y="166.462" fill-rule="evenodd" clip-rule="evenodd" fill="#D8BD76" width="1.83" height="44.544"/>
		<g>
			<rect x="156.435" y="166.462" fill-rule="evenodd" clip-rule="evenodd" fill="#D8BD76" width="3.661" height="44.544"/>
			<rect x="135.282" y="166.462" fill-rule="evenodd" clip-rule="evenodd" fill="#D8BD76" width="3.661" height="44.544"/>
			<rect x="146.052" y="166.462" fill-rule="evenodd" clip-rule="evenodd" fill="#D8BD76" width="3.661" height="44.544"/>
		</g>
	</g>
	<polygon fill-rule="evenodd" clip-rule="evenodd" fill="#565759" points="82.009,163.652 126.191,143.483 126.42,143.379 
		126.646,143.483 170.828,163.652 170.374,164.647 126.42,144.583 82.464,164.647 	"/>
	<rect x="120.936" y="129.189" fill-rule="evenodd" clip-rule="evenodd" fill="#818286" width="10.968" height="8.367"/>
	<rect x="126.42" y="129.189" fill-rule="evenodd" clip-rule="evenodd" fill="#565759" width="5.484" height="8.367"/>
	<polygon fill-rule="evenodd" clip-rule="evenodd" fill="#DFE9F2" points="124.661,141.362 128.179,141.362 128.763,148.096 
		124.076,148.096 	"/>
	<polygon fill-rule="evenodd" clip-rule="evenodd" fill="#CCD7E0" points="126.42,141.362 128.179,141.362 128.763,148.096 
		126.42,148.096 	"/>
</g>
<g>
	<g>
		<g>
			<rect x="49.639" y="68.799" fill-rule="evenodd" clip-rule="evenodd" fill="#D8BD76" width="23.736" height="20.139"/>
			<rect x="61.509" y="68.8" fill-rule="evenodd" clip-rule="evenodd" fill="#C4AA68" width="11.866" height="20.139"/>
			<rect x="49.053" y="68.484" fill-rule="evenodd" clip-rule="evenodd" fill="#E7D691" width="24.909" height="3.568"/>
			<rect x="61.509" y="68.484" fill-rule="evenodd" clip-rule="evenodd" fill="#D8BD76" width="12.453" height="3.568"/>
		</g>
		<g>
			<rect x="51.006" y="73.697" fill-rule="evenodd" clip-rule="evenodd" fill="#DFE9F2" width="8.085" height="3.668"/>
			<g>
				<rect x="57.641" y="74.167" fill-rule="evenodd" clip-rule="evenodd" fill="#818286" width="0.859" height="2.729"/>
				<rect x="56.106" y="74.167" fill-rule="evenodd" clip-rule="evenodd" fill="#818286" width="0.859" height="2.729"/>
				<rect x="54.522" y="74.167" fill-rule="evenodd" clip-rule="evenodd" fill="#818286" width="0.859" height="2.729"/>
				<rect x="53.07" y="74.167" fill-rule="evenodd" clip-rule="evenodd" fill="#818286" width="0.859" height="2.729"/>
				<rect x="51.598" y="74.167" fill-rule="evenodd" clip-rule="evenodd" fill="#818286" width="0.859" height="2.729"/>
			</g>
		</g>
	</g>
	<g>
		<g>
			<rect x="82.139" y="68.799" fill-rule="evenodd" clip-rule="evenodd" fill="#D8BD76" width="23.736" height="20.139"/>
			<rect x="94.007" y="68.8" fill-rule="evenodd" clip-rule="evenodd" fill="#C4AA68" width="11.868" height="20.139"/>
			<rect x="81.553" y="68.484" fill-rule="evenodd" clip-rule="evenodd" fill="#E7D691" width="24.907" height="3.568"/>
			<rect x="94.007" y="68.484" fill-rule="evenodd" clip-rule="evenodd" fill="#D8BD76" width="12.453" height="3.568"/>
		</g>
		<g>
			<rect x="83.504" y="73.697" fill-rule="evenodd" clip-rule="evenodd" fill="#DFE9F2" width="8.086" height="3.668"/>
			<g>
				<rect x="90.141" y="74.167" fill-rule="evenodd" clip-rule="evenodd" fill="#818286" width="0.859" height="2.729"/>
				<rect x="88.606" y="74.167" fill-rule="evenodd" clip-rule="evenodd" fill="#818286" width="0.859" height="2.729"/>
				<rect x="87.021" y="74.167" fill-rule="evenodd" clip-rule="evenodd" fill="#818286" width="0.859" height="2.729"/>
				<rect x="85.569" y="74.167" fill-rule="evenodd" clip-rule="evenodd" fill="#818286" width="0.859" height="2.729"/>
				<rect x="84.096" y="74.167" fill-rule="evenodd" clip-rule="evenodd" fill="#818286" width="0.859" height="2.729"/>
			</g>
		</g>
	</g>
	<g>
		<g>
			<rect x="82.139" y="95.997" fill-rule="evenodd" clip-rule="evenodd" fill="#D8BD76" width="23.736" height="20.139"/>
			<rect x="94.007" y="95.997" fill-rule="evenodd" clip-rule="evenodd" fill="#C4AA68" width="11.868" height="20.14"/>
			<rect x="81.553" y="95.681" fill-rule="evenodd" clip-rule="evenodd" fill="#E7D691" width="24.907" height="3.567"/>
			<rect x="94.007" y="95.681" fill-rule="evenodd" clip-rule="evenodd" fill="#D8BD76" width="12.453" height="3.567"/>
		</g>
		<g>
			<rect x="83.504" y="100.894" fill-rule="evenodd" clip-rule="evenodd" fill="#DFE9F2" width="8.086" height="3.668"/>
			<g>
				<rect x="90.141" y="101.363" fill-rule="evenodd" clip-rule="evenodd" fill="#818286" width="0.859" height="2.729"/>
				<rect x="88.606" y="101.363" fill-rule="evenodd" clip-rule="evenodd" fill="#818286" width="0.859" height="2.729"/>
				<rect x="87.021" y="101.363" fill-rule="evenodd" clip-rule="evenodd" fill="#818286" width="0.859" height="2.729"/>
				<rect x="85.569" y="101.363" fill-rule="evenodd" clip-rule="evenodd" fill="#818286" width="0.859" height="2.729"/>
				<rect x="84.096" y="101.363" fill-rule="evenodd" clip-rule="evenodd" fill="#818286" width="0.859" height="2.729"/>
			</g>
		</g>
	</g>
	<g>
		<g>
			<rect x="49.639" y="95.997" fill-rule="evenodd" clip-rule="evenodd" fill="#D8BD76" width="23.736" height="20.139"/>
			<rect x="61.509" y="95.997" fill-rule="evenodd" clip-rule="evenodd" fill="#C4AA68" width="11.866" height="20.14"/>
			<rect x="49.053" y="95.681" fill-rule="evenodd" clip-rule="evenodd" fill="#E7D691" width="24.909" height="3.567"/>
			<rect x="61.509" y="95.681" fill-rule="evenodd" clip-rule="evenodd" fill="#D8BD76" width="12.453" height="3.567"/>
		</g>
		<g>
			<rect x="51.006" y="100.894" fill-rule="evenodd" clip-rule="evenodd" fill="#DFE9F2" width="8.085" height="3.668"/>
			<g>
				<rect x="57.641" y="101.363" fill-rule="evenodd" clip-rule="evenodd" fill="#818286" width="0.859" height="2.729"/>
				<rect x="56.106" y="101.363" fill-rule="evenodd" clip-rule="evenodd" fill="#818286" width="0.859" height="2.729"/>
				<rect x="54.522" y="101.363" fill-rule="evenodd" clip-rule="evenodd" fill="#818286" width="0.859" height="2.729"/>
				<rect x="53.07" y="101.363" fill-rule="evenodd" clip-rule="evenodd" fill="#818286" width="0.859" height="2.729"/>
				<rect x="51.598" y="101.363" fill-rule="evenodd" clip-rule="evenodd" fill="#818286" width="0.859" height="2.729"/>
			</g>
		</g>
	</g>
	<g>
		<rect x="46.672" y="116.097" fill-rule="evenodd" clip-rule="evenodd" fill="#EC7064" width="62.119" height="4.421"/>
		<rect x="46.672" y="118.309" fill-rule="evenodd" clip-rule="evenodd" fill="#D5544F" width="62.119" height="2.21"/>
	</g>
	<g>
		<rect x="46.672" y="88.841" fill-rule="evenodd" clip-rule="evenodd" fill="#EC7064" width="62.119" height="4.42"/>
		<rect x="46.672" y="91.051" fill-rule="evenodd" clip-rule="evenodd" fill="#D5544F" width="62.119" height="2.21"/>
	</g>
	<g>
		<g>
			<rect x="42.643" y="65.675" fill-rule="evenodd" clip-rule="evenodd" fill="#EC7064" width="4.422" height="64.888"/>
			<rect x="44.854" y="65.675" fill-rule="evenodd" clip-rule="evenodd" fill="#D5544F" width="2.21" height="64.888"/>
		</g>
		<g>
			<rect x="108.401" y="65.675" fill-rule="evenodd" clip-rule="evenodd" fill="#EC7064" width="4.421" height="64.888"/>
			<rect x="110.611" y="65.675" fill-rule="evenodd" clip-rule="evenodd" fill="#D5544F" width="2.211" height="64.888"/>
		</g>
	</g>
	<g>
		<rect x="75.521" y="65.675" fill-rule="evenodd" clip-rule="evenodd" fill="#EC7064" width="4.421" height="64.888"/>
		<rect x="77.733" y="65.675" fill-rule="evenodd" clip-rule="evenodd" fill="#D5544F" width="2.209" height="64.888"/>
	</g>
</g>
<g>
	<g>
		<g>
			<g>
				<rect x="143.262" y="87.393" fill-rule="evenodd" clip-rule="evenodd" fill="#D8BD76" width="23.641" height="20.057"/>
				<rect x="155.084" y="87.393" fill-rule="evenodd" clip-rule="evenodd" fill="#C4AA68" width="11.819" height="20.057"/>
				<rect x="142.679" y="87.078" fill-rule="evenodd" clip-rule="evenodd" fill="#E7D691" width="24.807" height="3.553"/>
				<rect x="155.084" y="87.078" fill-rule="evenodd" clip-rule="evenodd" fill="#D8BD76" width="12.402" height="3.553"/>
			</g>
			<g>
				<rect x="144.625" y="92.269" fill-rule="evenodd" clip-rule="evenodd" fill="#DFE9F2" width="8.052" height="3.653"/>
				<g>
					<rect x="151.232" y="92.737" fill-rule="evenodd" clip-rule="evenodd" fill="#818286" width="0.854" height="2.718"/>
					<rect x="149.704" y="92.737" fill-rule="evenodd" clip-rule="evenodd" fill="#818286" width="0.856" height="2.718"/>
					<rect x="148.126" y="92.737" fill-rule="evenodd" clip-rule="evenodd" fill="#818286" width="0.856" height="2.718"/>
					<rect x="146.68" y="92.737" fill-rule="evenodd" clip-rule="evenodd" fill="#818286" width="0.855" height="2.718"/>
					<rect x="145.213" y="92.737" fill-rule="evenodd" clip-rule="evenodd" fill="#818286" width="0.855" height="2.718"/>
				</g>
			</g>
		</g>
		<g>
			<g>
				<rect x="168.349" y="87.393" fill-rule="evenodd" clip-rule="evenodd" fill="#D8BD76" width="23.642" height="20.057"/>
				<rect x="180.17" y="87.393" fill-rule="evenodd" clip-rule="evenodd" fill="#C4AA68" width="11.82" height="20.057"/>
				<rect x="167.766" y="87.078" fill-rule="evenodd" clip-rule="evenodd" fill="#E7D691" width="24.808" height="3.553"/>
				<rect x="180.17" y="87.078" fill-rule="evenodd" clip-rule="evenodd" fill="#D8BD76" width="12.403" height="3.553"/>
			</g>
			<g>
				<rect x="169.71" y="92.269" fill-rule="evenodd" clip-rule="evenodd" fill="#DFE9F2" width="8.052" height="3.653"/>
				<g>
					<rect x="176.318" y="92.737" fill-rule="evenodd" clip-rule="evenodd" fill="#818286" width="0.855" height="2.718"/>
					<rect x="174.79" y="92.737" fill-rule="evenodd" clip-rule="evenodd" fill="#818286" width="0.856" height="2.718"/>
					<rect x="173.212" y="92.737" fill-rule="evenodd" clip-rule="evenodd" fill="#818286" width="0.855" height="2.718"/>
					<rect x="171.767" y="92.737" fill-rule="evenodd" clip-rule="evenodd" fill="#818286" width="0.854" height="2.718"/>
					<rect x="170.299" y="92.737" fill-rule="evenodd" clip-rule="evenodd" fill="#818286" width="0.855" height="2.718"/>
				</g>
			</g>
		</g>
	</g>
	<path fill-rule="evenodd" clip-rule="evenodd" fill="#565759" d="M143.04,107.55h73.521c6.112,0,11.111,5.001,11.111,11.113l0,0
		c0,6.111-5,11.11-11.111,11.11H143.04c-6.111,0-11.11-4.999-11.11-11.11l0,0C131.93,112.551,136.929,107.55,143.04,107.55z"/>
	<path fill-rule="evenodd" clip-rule="evenodd" fill="#444445" d="M227.673,118.664c0,6.111-5,11.11-11.111,11.11h-73.521
		c-6.111,0-11.111-4.999-11.111-11.11H227.673z"/>
	<path fill-rule="evenodd" clip-rule="evenodd" fill="#CCD7E0" d="M143.321,109.348h72.96c5.124,0,9.316,4.191,9.316,9.315l0,0
		c0,5.124-4.192,9.315-9.316,9.315h-72.96c-5.124,0-9.317-4.192-9.317-9.315l0,0C134.004,113.539,138.197,109.348,143.321,109.348z"
		/>
	<path fill-rule="evenodd" clip-rule="evenodd" fill="#B5BFC9" d="M225.598,118.664c-0.001,5.124-4.192,9.315-9.316,9.315h-72.96
		c-5.124,0-9.315-4.192-9.315-9.315H225.598z"/>
	<g>
		<g>
			<rect x="193.435" y="87.393" fill-rule="evenodd" clip-rule="evenodd" fill="#D8BD76" width="23.641" height="20.057"/>
			<rect x="205.257" y="87.393" fill-rule="evenodd" clip-rule="evenodd" fill="#C4AA68" width="11.818" height="20.057"/>
			<rect x="192.851" y="87.078" fill-rule="evenodd" clip-rule="evenodd" fill="#E7D691" width="24.808" height="3.553"/>
			<rect x="205.257" y="87.078" fill-rule="evenodd" clip-rule="evenodd" fill="#D8BD76" width="12.401" height="3.553"/>
		</g>
		<g>
			<rect x="194.796" y="92.269" fill-rule="evenodd" clip-rule="evenodd" fill="#DFE9F2" width="8.052" height="3.653"/>
			<g>
				<rect x="201.403" y="92.737" fill-rule="evenodd" clip-rule="evenodd" fill="#818286" width="0.856" height="2.718"/>
				<rect x="199.876" y="92.737" fill-rule="evenodd" clip-rule="evenodd" fill="#818286" width="0.854" height="2.718"/>
				<rect x="198.297" y="92.737" fill-rule="evenodd" clip-rule="evenodd" fill="#818286" width="0.856" height="2.718"/>
				<rect x="196.851" y="92.737" fill-rule="evenodd" clip-rule="evenodd" fill="#818286" width="0.856" height="2.718"/>
				<rect x="195.385" y="92.737" fill-rule="evenodd" clip-rule="evenodd" fill="#818286" width="0.855" height="2.718"/>
			</g>
		</g>
	</g>
	<g>
		<g>
			<path fill-rule="evenodd" clip-rule="evenodd" fill="#818286" d="M168.306,124.482c3.205,0,5.817-2.614,5.817-5.819
				c0-3.206-2.612-5.82-5.817-5.82s-5.819,2.614-5.819,5.82C162.486,121.868,165.101,124.482,168.306,124.482z"/>
			<path fill-rule="evenodd" clip-rule="evenodd" fill="#565759" d="M168.307,112.845c3.213,0,5.816,2.605,5.816,5.819
				c0,3.213-2.604,5.819-5.816,5.819V112.845z"/>
		</g>
		<g>
			<path fill-rule="evenodd" clip-rule="evenodd" fill="#818286" d="M213.599,124.482c3.204,0,5.819-2.614,5.819-5.819
				c0-3.206-2.615-5.82-5.819-5.82c-3.203,0-5.818,2.614-5.818,5.82C207.78,121.868,210.396,124.482,213.599,124.482z"/>
			<path fill-rule="evenodd" clip-rule="evenodd" fill="#565759" d="M213.601,112.845c3.212,0,5.817,2.605,5.817,5.819
				c0,3.213-2.605,5.819-5.817,5.819V112.845z"/>
		</g>
		<g>
			<path fill-rule="evenodd" clip-rule="evenodd" fill="#818286" d="M190.879,124.482c3.205,0,5.82-2.614,5.82-5.819
				c0-3.206-2.615-5.82-5.82-5.82s-5.819,2.614-5.819,5.82C185.06,121.868,187.674,124.482,190.879,124.482z"/>
			<path fill-rule="evenodd" clip-rule="evenodd" fill="#565759" d="M190.879,112.845c3.214,0,5.82,2.605,5.82,5.819
				c0,3.213-2.606,5.819-5.82,5.819V112.845z"/>
		</g>
		<g>
			<path fill-rule="evenodd" clip-rule="evenodd" fill="#818286" d="M146.004,124.482c3.204,0,5.818-2.614,5.818-5.819
				c0-3.206-2.614-5.82-5.818-5.82c-3.206,0-5.82,2.614-5.82,5.82C140.184,121.868,142.798,124.482,146.004,124.482z"/>
			<path fill-rule="evenodd" clip-rule="evenodd" fill="#565759" d="M146.004,112.845c3.214,0,5.818,2.605,5.818,5.819
				c0,3.213-2.604,5.819-5.818,5.819V112.845z"/>
		</g>
	</g>
</g>
</svg>
