<?xml version="1.0" encoding="utf-8"?>
<!-- Generator: Adobe Illustrator 16.0.0, SVG Export Plug-In . SVG Version: 6.00 Build 0)  -->
<!DOCTYPE svg PUBLIC "-//W3C//DTD SVG 1.1//EN" "http://www.w3.org/Graphics/SVG/1.1/DTD/svg11.dtd">
<svg version="1.1" id="Layer_1" xmlns="http://www.w3.org/2000/svg" xmlns:xlink="http://www.w3.org/1999/xlink" x="0px" y="0px"
	 width="300px" height="300px" viewBox="0 0 300 300" enable-background="new 0 0 300 300" xml:space="preserve">
<g>
	<g>
		<polygon fill-rule="evenodd" clip-rule="evenodd" fill="#91CEBE" points="255.964,58.973 255.964,162.858 38.267,162.858 
			38.267,58.973 147.115,19.856 		"/>
		<polygon fill-rule="evenodd" clip-rule="evenodd" fill="#81B1A3" points="255.964,58.973 255.964,162.858 147.115,162.858 
			147.115,19.856 		"/>
		<rect x="50.577" y="63.265" fill-rule="evenodd" clip-rule="evenodd" fill="#565759" width="193.077" height="99.594"/>
		<polygon fill-rule="evenodd" clip-rule="evenodd" fill="#444445" points="243.653,63.265 243.653,162.858 147.115,162.858 
			147.115,63.273 		"/>
	</g>
	<g>
		<rect x="55.428" y="154.951" fill-rule="evenodd" clip-rule="evenodd" fill="#D8BD76" width="11.16" height="7.907"/>
		<rect x="103.143" y="154.951" fill-rule="evenodd" clip-rule="evenodd" fill="#C4AA68" width="11.162" height="7.907"/>
		<rect x="55.428" y="154.95" fill-rule="evenodd" clip-rule="evenodd" fill="#E7D691" width="58.877" height="3.372"/>
		<rect x="84.868" y="154.95" fill-rule="evenodd" clip-rule="evenodd" fill="#D8BD76" width="29.438" height="3.372"/>
	</g>
	<g>
		<g>
			<rect x="56.594" y="126.779" fill-rule="evenodd" clip-rule="evenodd" fill="#D8BD76" width="27.357" height="27.356"/>
			<rect x="70.274" y="126.779" fill-rule="evenodd" clip-rule="evenodd" fill="#C4AA68" width="13.677" height="27.356"/>
			<rect x="55.919" y="126.349" fill-rule="evenodd" clip-rule="evenodd" fill="#E7D691" width="28.707" height="4.846"/>
			<rect x="70.274" y="126.349" fill-rule="evenodd" clip-rule="evenodd" fill="#D8BD76" width="14.352" height="4.846"/>
		</g>
		<g>
			<rect x="85.781" y="126.779" fill-rule="evenodd" clip-rule="evenodd" fill="#D8BD76" width="27.356" height="27.356"/>
			<rect x="99.461" y="126.779" fill-rule="evenodd" clip-rule="evenodd" fill="#C4AA68" width="13.676" height="27.356"/>
			<rect x="85.107" y="126.349" fill-rule="evenodd" clip-rule="evenodd" fill="#E7D691" width="28.707" height="4.846"/>
			<rect x="99.461" y="126.349" fill-rule="evenodd" clip-rule="evenodd" fill="#D8BD76" width="14.353" height="4.846"/>
		</g>
	</g>
	<g>
		<g>
			<rect x="117.627" y="154.951" fill-rule="evenodd" clip-rule="evenodd" fill="#D8BD76" width="11.162" height="7.907"/>
			<rect x="165.344" y="154.951" fill-rule="evenodd" clip-rule="evenodd" fill="#C4AA68" width="11.16" height="7.907"/>
			<rect x="117.627" y="154.95" fill-rule="evenodd" clip-rule="evenodd" fill="#E7D691" width="58.876" height="3.372"/>
			<rect x="147.068" y="154.95" fill-rule="evenodd" clip-rule="evenodd" fill="#D8BD76" width="29.436" height="3.372"/>
		</g>
		<g>
			<g>
				<rect x="118.794" y="126.779" fill-rule="evenodd" clip-rule="evenodd" fill="#D8BD76" width="27.357" height="27.356"/>
				<rect x="132.473" y="126.779" fill-rule="evenodd" clip-rule="evenodd" fill="#C4AA68" width="13.679" height="27.356"/>
				<rect x="118.119" y="126.349" fill-rule="evenodd" clip-rule="evenodd" fill="#E7D691" width="28.707" height="4.846"/>
				<rect x="132.473" y="126.349" fill-rule="evenodd" clip-rule="evenodd" fill="#D8BD76" width="14.353" height="4.846"/>
			</g>
			<g>
				<rect x="147.981" y="126.779" fill-rule="evenodd" clip-rule="evenodd" fill="#D8BD76" width="27.358" height="27.356"/>
				<rect x="161.66" y="126.779" fill-rule="evenodd" clip-rule="evenodd" fill="#C4AA68" width="13.677" height="27.356"/>
				<rect x="147.308" y="126.349" fill-rule="evenodd" clip-rule="evenodd" fill="#E7D691" width="28.706" height="4.846"/>
				<rect x="161.66" y="126.349" fill-rule="evenodd" clip-rule="evenodd" fill="#D8BD76" width="14.354" height="4.846"/>
			</g>
		</g>
	</g>
	<g>
		<rect x="56.594" y="98.052" fill-rule="evenodd" clip-rule="evenodd" fill="#D8BD76" width="27.357" height="27.357"/>
		<rect x="70.274" y="98.052" fill-rule="evenodd" clip-rule="evenodd" fill="#C4AA68" width="13.677" height="27.357"/>
		<rect x="55.919" y="97.623" fill-rule="evenodd" clip-rule="evenodd" fill="#E7D691" width="28.707" height="4.846"/>
		<rect x="70.274" y="97.623" fill-rule="evenodd" clip-rule="evenodd" fill="#D8BD76" width="14.352" height="4.846"/>
	</g>
	<g>
		<rect x="85.781" y="98.052" fill-rule="evenodd" clip-rule="evenodd" fill="#D8BD76" width="27.356" height="27.357"/>
		<rect x="99.461" y="98.052" fill-rule="evenodd" clip-rule="evenodd" fill="#C4AA68" width="13.676" height="27.357"/>
		<rect x="85.107" y="97.623" fill-rule="evenodd" clip-rule="evenodd" fill="#E7D691" width="28.707" height="4.846"/>
		<rect x="99.461" y="97.623" fill-rule="evenodd" clip-rule="evenodd" fill="#D8BD76" width="14.353" height="4.846"/>
	</g>
	<g>
		<rect x="56.594" y="69.089" fill-rule="evenodd" clip-rule="evenodd" fill="#D8BD76" width="27.357" height="27.357"/>
		<rect x="70.274" y="69.089" fill-rule="evenodd" clip-rule="evenodd" fill="#C4AA68" width="13.677" height="27.357"/>
		<rect x="55.919" y="68.66" fill-rule="evenodd" clip-rule="evenodd" fill="#E7D691" width="28.707" height="4.846"/>
		<rect x="70.274" y="68.66" fill-rule="evenodd" clip-rule="evenodd" fill="#D8BD76" width="14.352" height="4.845"/>
	</g>
	<g>
		<rect x="118.303" y="98.052" fill-rule="evenodd" clip-rule="evenodd" fill="#D8BD76" width="27.357" height="27.357"/>
		<rect x="131.981" y="98.052" fill-rule="evenodd" clip-rule="evenodd" fill="#C4AA68" width="13.679" height="27.357"/>
		<rect x="117.627" y="97.623" fill-rule="evenodd" clip-rule="evenodd" fill="#E7D691" width="28.707" height="4.846"/>
		<rect x="131.981" y="97.623" fill-rule="evenodd" clip-rule="evenodd" fill="#D8BD76" width="14.354" height="4.846"/>
	</g>
	<g>
		<rect x="57.715" y="76.028" fill-rule="evenodd" clip-rule="evenodd" fill="#DFE9F2" width="9.319" height="4.228"/>
		<g>
			<rect x="65.361" y="76.569" fill-rule="evenodd" clip-rule="evenodd" fill="#818286" width="0.991" height="3.145"/>
			<rect x="63.594" y="76.569" fill-rule="evenodd" clip-rule="evenodd" fill="#818286" width="0.99" height="3.145"/>
			<rect x="61.768" y="76.569" fill-rule="evenodd" clip-rule="evenodd" fill="#818286" width="0.99" height="3.145"/>
			<rect x="60.094" y="76.569" fill-rule="evenodd" clip-rule="evenodd" fill="#818286" width="0.99" height="3.145"/>
			<rect x="58.396" y="76.569" fill-rule="evenodd" clip-rule="evenodd" fill="#818286" width="0.991" height="3.145"/>
		</g>
	</g>
	<g>
		<rect x="58.189" y="105.347" fill-rule="evenodd" clip-rule="evenodd" fill="#DFE9F2" width="9.32" height="4.228"/>
		<g>
			<rect x="65.836" y="105.888" fill-rule="evenodd" clip-rule="evenodd" fill="#818286" width="0.991" height="3.146"/>
			<rect x="64.068" y="105.888" fill-rule="evenodd" clip-rule="evenodd" fill="#818286" width="0.99" height="3.146"/>
			<rect x="62.242" y="105.888" fill-rule="evenodd" clip-rule="evenodd" fill="#818286" width="0.991" height="3.146"/>
			<rect x="60.569" y="105.888" fill-rule="evenodd" clip-rule="evenodd" fill="#818286" width="0.99" height="3.146"/>
			<rect x="58.871" y="105.888" fill-rule="evenodd" clip-rule="evenodd" fill="#818286" width="0.99" height="3.146"/>
		</g>
	</g>
	<g>
		<rect x="87.271" y="105.347" fill-rule="evenodd" clip-rule="evenodd" fill="#DFE9F2" width="9.319" height="4.228"/>
		<g>
			<rect x="94.918" y="105.888" fill-rule="evenodd" clip-rule="evenodd" fill="#818286" width="0.991" height="3.146"/>
			<rect x="93.151" y="105.888" fill-rule="evenodd" clip-rule="evenodd" fill="#818286" width="0.99" height="3.146"/>
			<rect x="91.324" y="105.888" fill-rule="evenodd" clip-rule="evenodd" fill="#818286" width="0.99" height="3.146"/>
			<rect x="89.65" y="105.888" fill-rule="evenodd" clip-rule="evenodd" fill="#818286" width="0.99" height="3.146"/>
			<rect x="87.954" y="105.888" fill-rule="evenodd" clip-rule="evenodd" fill="#818286" width="0.99" height="3.146"/>
		</g>
	</g>
	<g>
		<rect x="120.034" y="105.347" fill-rule="evenodd" clip-rule="evenodd" fill="#DFE9F2" width="9.319" height="4.228"/>
		<g>
			<rect x="127.679" y="105.888" fill-rule="evenodd" clip-rule="evenodd" fill="#818286" width="0.992" height="3.146"/>
			<rect x="125.912" y="105.888" fill-rule="evenodd" clip-rule="evenodd" fill="#818286" width="0.992" height="3.146"/>
			<rect x="124.087" y="105.888" fill-rule="evenodd" clip-rule="evenodd" fill="#818286" width="0.99" height="3.146"/>
			<rect x="122.413" y="105.888" fill-rule="evenodd" clip-rule="evenodd" fill="#818286" width="0.99" height="3.146"/>
			<rect x="120.716" y="105.888" fill-rule="evenodd" clip-rule="evenodd" fill="#818286" width="0.99" height="3.146"/>
		</g>
	</g>
	<g>
		<rect x="58.189" y="134.31" fill-rule="evenodd" clip-rule="evenodd" fill="#DFE9F2" width="9.32" height="4.228"/>
		<g>
			<rect x="65.836" y="134.852" fill-rule="evenodd" clip-rule="evenodd" fill="#818286" width="0.991" height="3.145"/>
			<rect x="64.068" y="134.852" fill-rule="evenodd" clip-rule="evenodd" fill="#818286" width="0.99" height="3.145"/>
			<rect x="62.242" y="134.852" fill-rule="evenodd" clip-rule="evenodd" fill="#818286" width="0.991" height="3.145"/>
			<rect x="60.569" y="134.852" fill-rule="evenodd" clip-rule="evenodd" fill="#818286" width="0.99" height="3.145"/>
			<rect x="58.871" y="134.852" fill-rule="evenodd" clip-rule="evenodd" fill="#818286" width="0.99" height="3.145"/>
		</g>
	</g>
	<g>
		<rect x="87.271" y="134.31" fill-rule="evenodd" clip-rule="evenodd" fill="#DFE9F2" width="9.319" height="4.228"/>
		<g>
			<rect x="94.918" y="134.852" fill-rule="evenodd" clip-rule="evenodd" fill="#818286" width="0.991" height="3.145"/>
			<rect x="93.151" y="134.852" fill-rule="evenodd" clip-rule="evenodd" fill="#818286" width="0.99" height="3.145"/>
			<rect x="91.324" y="134.852" fill-rule="evenodd" clip-rule="evenodd" fill="#818286" width="0.99" height="3.145"/>
			<rect x="89.65" y="134.852" fill-rule="evenodd" clip-rule="evenodd" fill="#818286" width="0.99" height="3.145"/>
			<rect x="87.954" y="134.852" fill-rule="evenodd" clip-rule="evenodd" fill="#818286" width="0.99" height="3.145"/>
		</g>
	</g>
	<g>
		<rect x="120.034" y="134.31" fill-rule="evenodd" clip-rule="evenodd" fill="#DFE9F2" width="9.319" height="4.228"/>
		<g>
			<rect x="127.679" y="134.852" fill-rule="evenodd" clip-rule="evenodd" fill="#818286" width="0.992" height="3.145"/>
			<rect x="125.912" y="134.852" fill-rule="evenodd" clip-rule="evenodd" fill="#818286" width="0.992" height="3.145"/>
			<rect x="124.087" y="134.852" fill-rule="evenodd" clip-rule="evenodd" fill="#818286" width="0.99" height="3.145"/>
			<rect x="122.413" y="134.852" fill-rule="evenodd" clip-rule="evenodd" fill="#818286" width="0.99" height="3.145"/>
			<rect x="120.716" y="134.852" fill-rule="evenodd" clip-rule="evenodd" fill="#818286" width="0.99" height="3.145"/>
		</g>
	</g>
	<g>
		<rect x="149.648" y="134.31" fill-rule="evenodd" clip-rule="evenodd" fill="#DFE9F2" width="9.319" height="4.228"/>
		<g>
			<rect x="157.298" y="134.852" fill-rule="evenodd" clip-rule="evenodd" fill="#818286" width="0.989" height="3.145"/>
			<rect x="155.528" y="134.852" fill-rule="evenodd" clip-rule="evenodd" fill="#818286" width="0.991" height="3.145"/>
			<rect x="153.701" y="134.852" fill-rule="evenodd" clip-rule="evenodd" fill="#818286" width="0.992" height="3.145"/>
			<rect x="152.027" y="134.852" fill-rule="evenodd" clip-rule="evenodd" fill="#818286" width="0.992" height="3.145"/>
			<rect x="150.331" y="134.852" fill-rule="evenodd" clip-rule="evenodd" fill="#818286" width="0.991" height="3.145"/>
		</g>
	</g>
	<path fill-rule="evenodd" clip-rule="evenodd" fill="#FFFFFF" d="M99.102,45.886l3.373,11.91h3.812l0.962-3.888l1.091,3.888h3.812
		l2.917-11.91h-3.324l-1.483,8.039l-1.661-5.564l0.603-2.474h-3.323l-1.484,8.039l-1.971-8.039H99.102L99.102,45.886z
		 M113.652,57.796l3.73-11.91h3.73l3.618,11.91h-3.244l-0.7-2.069h-3.209l-0.686,2.069H113.652L113.652,57.796z M118.296,53.039
		h1.856l-0.863-3.194L118.296,53.039L118.296,53.039z M125.546,57.796h3.16v-4.439l0.979,0.224l1.531,4.215h3.6l-2.054-4.504
		c0.833-0.327,1.762-0.75,1.762-3.581c0-2.961-1.534-3.826-3.651-3.826h-5.328V57.796L125.546,57.796z M128.722,50.981v-2.407h1.745
		c0.716,0,0.879,0.421,0.879,1.137c0,0.845-0.049,1.27-0.879,1.27H128.722L128.722,50.981z M135.567,55.189
		c0,2.493,2.14,2.705,3.192,2.672c0,0,3.488-0.049,5.165-0.278v-2.64h-4.186c-0.474,0-1.011,0.017-1.011-0.847v-0.716l4.384-0.148
		v-2.623l-4.384-0.179v-0.717c0-0.44,0-0.913,0.847-0.913h4.35v-2.655c-1.905-0.261-5.329-0.261-5.329-0.261
		c-1.148,0-3.028,0.315-3.028,2.77V55.189L135.567,55.189z M144.885,57.796h3.161v-4.334h2.769v4.334h3.161v-11.91h-3.161v4.742
		h-2.769v-4.742h-3.161V57.796L144.885,57.796z M155.116,51.931c0,5.426,2.005,5.947,4.938,5.947c2.933,0,4.937-0.685,4.937-5.947
		c0-5.589-2.119-6.127-4.937-6.127C157.317,45.804,155.116,46.342,155.116,51.931L155.116,51.931z M158.278,51.931
		c0-2.917,0.342-3.291,1.776-3.291c1.482,0,1.775,0.521,1.775,3.291c0,2.524-0.374,3.112-1.775,3.112
		C158.458,55.043,158.278,54.423,158.278,51.931L158.278,51.931z M166.114,52.599c0,5.426,2.527,5.296,4.742,5.296
		c1.972,0,4.661-0.033,4.661-5.296v-6.713h-3.178v6.713c0,1.466-0.032,2.461-1.483,2.461c-1.547,0-1.579-0.929-1.579-2.461v-6.713
		h-3.163V52.599L166.114,52.599z M176.656,50.008c0,0.766,0.131,3.454,3.229,3.454h1.465c0.716,0,0.862,0.245,0.862,0.717v0.26
		c0,0.489-0.26,0.669-0.96,0.669c-1.515,0-3.57-0.114-4.221-0.18v2.46c1.63,0.555,1.988,0.555,5.034,0.555
		c1.613,0,3.309-0.62,3.309-3.65v-0.538c0-1.303-0.57-3.454-3.047-3.454h-1.531c-0.879,0-0.978-0.277-0.978-0.782v-0.18
		c0-0.684,0.326-0.717,1.205-0.717c1.075,0,2.868,0.049,3.912,0.163v-2.46c-1.207-0.44-2.644-0.687-5.051-0.537
		c-1.826,0.113-3.229,1.091-3.229,3.226V50.008L176.656,50.008z M186.417,55.189c0,2.493,2.14,2.705,3.193,2.672
		c0,0,3.486-0.049,5.165-0.278v-2.64h-4.187c-0.472,0-1.012,0.017-1.012-0.847v-0.716l4.383-0.148v-2.623l-4.383-0.179v-0.717
		c0-0.44,0-0.913,0.849-0.913h4.35v-2.655c-1.906-0.261-5.328-0.261-5.328-0.261c-1.15,0-3.03,0.315-3.03,2.77V55.189z"/>
</g>
<g>
	<polygon fill-rule="evenodd" clip-rule="evenodd" fill="#444445" points="114.562,260.336 114.562,201.912 109.045,201.912 
		109.045,260.336 110.953,260.336 110.953,222.83 112.653,222.83 112.653,260.336 	"/>
	<rect x="107.488" y="244.065" fill-rule="evenodd" clip-rule="evenodd" fill="#444445" width="10.61" height="16.271"/>
	<path fill-rule="evenodd" clip-rule="evenodd" fill="#565759" d="M85.528,239.26H68.966c-2.526,0-4.593,2.064-4.593,4.592l0,0
		c0,2.526,2.066,4.594,4.593,4.594h16.563c2.527,0,4.594-2.067,4.594-4.594l0,0C90.122,241.324,88.056,239.26,85.528,239.26z"/>
	<path fill-rule="evenodd" clip-rule="evenodd" fill="#565759" d="M74.908,239.893l-5.214-15.529
		c-0.627-1.868-2.669-2.882-4.538-2.256l0,0c-1.868,0.628-2.883,2.669-2.256,4.539l5.215,15.527c0.628,1.87,2.669,2.884,4.538,2.258
		l0,0C74.521,243.803,75.537,241.761,74.908,239.893z"/>
	<path fill-rule="evenodd" clip-rule="evenodd" fill="#565759" d="M105.557,237.807l3.124,10.975l-14.014,0.086
		C98.957,242.475,99.323,242.327,105.557,237.807z"/>
	<path fill-rule="evenodd" clip-rule="evenodd" fill="#565759" d="M103.583,241.118l-8.29-9.141
		c-0.532-0.587-1.473-0.638-2.034-0.078l0,0c-0.56,0.56-0.609,1.447-0.078,2.034l8.292,9.14c0.531,0.586,1.453,0.616,2.032,0.078
		l0,0C104.084,242.613,104.114,241.703,103.583,241.118z"/>
	<path fill-rule="evenodd" clip-rule="evenodd" fill="#444445" d="M87.867,233.282l7.533-6.979c0.905-0.84,2.333-0.784,3.172,0.121
		h0.001c0.839,0.905,0.785,2.335-0.122,3.175l-7.531,6.976c-0.907,0.841-2.333,0.785-3.173-0.12l0,0
		C86.905,235.548,86.961,234.121,87.867,233.282z"/>
	<path fill-rule="evenodd" clip-rule="evenodd" fill="#565759" d="M92.166,202.494H64.839c-2.102,0-3.823,1.72-3.823,3.822v50.285
		c0,2.102,1.722,3.823,3.823,3.823h43.366c2.102,0,4.462-1.82,3.824-3.823l-16.04-50.285
		C95.351,204.313,94.269,202.494,92.166,202.494L92.166,202.494z M91.384,205.063c1.897,0,2.873,1.659,3.448,3.482l14.47,45.828
		c0.576,1.824-1.554,3.484-3.449,3.484H66.732c-1.896,0-3.449-1.568-3.449-3.484v-45.828c0-1.914,1.551-3.482,3.449-3.482H91.384z"
		/>
	<path fill-rule="evenodd" clip-rule="evenodd" fill="#91CEBE" d="M61.016,244.28v11.872c0,2.348,1.722,4.272,3.823,4.272h43.366
		c2.101,0,4.563-2.064,3.824-4.272l-3.553-10.601l-44.768-0.026C62.509,245.521,61.718,245.252,61.016,244.28z"/>
	<path fill-rule="evenodd" clip-rule="evenodd" fill="#91CEBE" d="M69.625,235.439H55.668c-1.726,0-3.137,1.41-3.137,3.137v12.684
		c0,1.724,1.411,3.136,3.137,3.136h13.957c1.725,0,3.137-1.412,3.137-3.136v-12.684C72.762,236.85,71.35,235.439,69.625,235.439z"/>
	<path fill-rule="evenodd" clip-rule="evenodd" fill="#81B1A3" d="M61.016,252.352v3.801c0,2.348,1.722,4.272,3.823,4.272h43.366
		c2.101,0,4.563-2.064,3.824-4.272l-1.274-3.801H61.016z"/>
	<g>
		<path fill-rule="evenodd" clip-rule="evenodd" fill="#565759" d="M109.903,267.912c4.863,0,8.831-3.967,8.831-8.83
			s-3.967-8.831-8.831-8.831c-4.864,0-8.832,3.968-8.832,8.831S105.039,267.912,109.903,267.912z"/>
		<path fill-rule="evenodd" clip-rule="evenodd" fill="#444445" d="M109.903,250.251c4.877,0,8.831,3.954,8.831,8.831
			s-3.954,8.83-8.831,8.832V250.251z"/>
		<path fill-rule="evenodd" clip-rule="evenodd" fill="#818286" d="M109.903,262.559c1.915,0,3.477-1.561,3.477-3.477
			s-1.562-3.478-3.477-3.478c-1.915,0-3.477,1.562-3.477,3.478S107.988,262.559,109.903,262.559z"/>
		<path fill-rule="evenodd" clip-rule="evenodd" fill="#565759" d="M109.903,255.604c1.919,0,3.477,1.558,3.477,3.478
			c0,1.919-1.557,3.477-3.477,3.477V255.604z"/>
		<path fill-rule="evenodd" clip-rule="evenodd" fill="#565759" d="M109.901,247.746c5.099,0,9.413,3.367,10.837,7.997H119.2
			c-1.37-3.812-5.016-6.537-9.298-6.537c-4.281,0-7.927,2.726-9.295,6.537h-1.541C100.493,251.113,104.804,247.746,109.901,247.746z
			"/>
		<path fill-rule="evenodd" clip-rule="evenodd" fill="#444445" d="M109.903,247.746c5.098,0,9.411,3.367,10.835,7.997H119.2
			c-1.37-3.812-5.016-6.537-9.297-6.537V247.746z"/>
	</g>
	<path fill-rule="evenodd" clip-rule="evenodd" fill="#81B1A3" d="M62.646,235.439h-6.977c-1.726,0-3.137,1.41-3.137,3.137v12.682
		c0,1.726,1.411,3.138,3.137,3.138h6.977V235.439z"/>
	<g>
		<path fill-rule="evenodd" clip-rule="evenodd" fill="#565759" d="M60.495,267.912c4.864,0,8.831-3.967,8.831-8.83
			s-3.967-8.831-8.831-8.831c-4.865,0-8.833,3.968-8.833,8.831S55.63,267.912,60.495,267.912z"/>
		<path fill-rule="evenodd" clip-rule="evenodd" fill="#444445" d="M60.495,250.251c4.877,0,8.831,3.954,8.831,8.831
			s-3.954,8.83-8.831,8.832V250.251z"/>
		<path fill-rule="evenodd" clip-rule="evenodd" fill="#818286" d="M60.495,262.559c1.915,0,3.477-1.561,3.477-3.477
			s-1.562-3.478-3.477-3.478c-1.916,0-3.479,1.562-3.479,3.478S58.579,262.559,60.495,262.559z"/>
		<path fill-rule="evenodd" clip-rule="evenodd" fill="#565759" d="M60.495,255.604c1.92,0,3.477,1.558,3.477,3.478
			c0,1.919-1.557,3.477-3.477,3.477V255.604z"/>
		<path fill-rule="evenodd" clip-rule="evenodd" fill="#565759" d="M60.494,247.746c5.099,0,9.41,3.367,10.835,7.997H69.79
			c-1.369-3.812-5.014-6.537-9.296-6.537s-7.928,2.726-9.296,6.537h-1.54C51.083,251.113,55.395,247.746,60.494,247.746z"/>
		<path fill-rule="evenodd" clip-rule="evenodd" fill="#444445" d="M60.495,247.746c5.098,0,9.409,3.367,10.834,7.997H69.79
			c-1.369-3.812-5.014-6.537-9.295-6.537V247.746z"/>
	</g>
	<g>
		<g>
			<rect x="114.413" y="196.58" fill-rule="evenodd" clip-rule="evenodd" fill="#D8BD76" width="29.792" height="25.279"/>
			<rect x="129.311" y="196.58" fill-rule="evenodd" clip-rule="evenodd" fill="#C4AA68" width="14.895" height="25.279"/>
			<rect x="113.676" y="196.183" fill-rule="evenodd" clip-rule="evenodd" fill="#E7D691" width="31.264" height="4.479"/>
			<rect x="129.311" y="196.183" fill-rule="evenodd" clip-rule="evenodd" fill="#D8BD76" width="15.63" height="4.479"/>
		</g>
		<g>
			<rect x="116.127" y="202.726" fill-rule="evenodd" clip-rule="evenodd" fill="#DFE9F2" width="10.149" height="4.604"/>
			<g>
				<rect x="124.455" y="203.316" fill-rule="evenodd" clip-rule="evenodd" fill="#818286" width="1.079" height="3.424"/>
				<rect x="122.529" y="203.316" fill-rule="evenodd" clip-rule="evenodd" fill="#818286" width="1.078" height="3.424"/>
				<rect x="120.54" y="203.316" fill-rule="evenodd" clip-rule="evenodd" fill="#818286" width="1.079" height="3.424"/>
				<rect x="118.717" y="203.316" fill-rule="evenodd" clip-rule="evenodd" fill="#818286" width="1.078" height="3.424"/>
				<rect x="116.867" y="203.316" fill-rule="evenodd" clip-rule="evenodd" fill="#818286" width="1.08" height="3.424"/>
			</g>
		</g>
	</g>
	<polygon fill-rule="evenodd" clip-rule="evenodd" fill="#444445" points="145.435,221.832 109.045,221.832 109.045,224.448 
		150.972,224.448 	"/>
</g>
<g>
	<g>
		<g>
			<rect x="207.104" y="194.282" fill-rule="evenodd" clip-rule="evenodd" fill="#D8BD76" width="28.298" height="24.009"/>
			<rect x="221.255" y="194.282" fill-rule="evenodd" clip-rule="evenodd" fill="#C4AA68" width="14.146" height="24.009"/>
			<rect x="206.405" y="193.906" fill-rule="evenodd" clip-rule="evenodd" fill="#E7D691" width="29.693" height="4.252"/>
			<rect x="221.255" y="193.906" fill-rule="evenodd" clip-rule="evenodd" fill="#D8BD76" width="14.844" height="4.253"/>
		</g>
		<g>
			<rect x="208.731" y="200.121" fill-rule="evenodd" clip-rule="evenodd" fill="#DFE9F2" width="9.64" height="4.371"/>
			<g>
				<rect x="216.642" y="200.681" fill-rule="evenodd" clip-rule="evenodd" fill="#818286" width="1.023" height="3.253"/>
				<rect x="214.813" y="200.681" fill-rule="evenodd" clip-rule="evenodd" fill="#818286" width="1.024" height="3.253"/>
				<rect x="212.924" y="200.681" fill-rule="evenodd" clip-rule="evenodd" fill="#818286" width="1.024" height="3.253"/>
				<rect x="211.194" y="200.681" fill-rule="evenodd" clip-rule="evenodd" fill="#818286" width="1.022" height="3.253"/>
				<rect x="209.438" y="200.681" fill-rule="evenodd" clip-rule="evenodd" fill="#818286" width="1.023" height="3.253"/>
			</g>
		</g>
	</g>
	<g>
		<g>
			<rect x="245.847" y="194.282" fill-rule="evenodd" clip-rule="evenodd" fill="#D8BD76" width="28.298" height="24.009"/>
			<rect x="259.998" y="194.282" fill-rule="evenodd" clip-rule="evenodd" fill="#C4AA68" width="14.146" height="24.009"/>
			<rect x="245.148" y="193.906" fill-rule="evenodd" clip-rule="evenodd" fill="#E7D691" width="29.695" height="4.252"/>
			<rect x="259.998" y="193.906" fill-rule="evenodd" clip-rule="evenodd" fill="#D8BD76" width="14.846" height="4.253"/>
		</g>
		<g>
			<rect x="247.478" y="200.121" fill-rule="evenodd" clip-rule="evenodd" fill="#DFE9F2" width="9.639" height="4.371"/>
			<g>
				<rect x="255.387" y="200.681" fill-rule="evenodd" clip-rule="evenodd" fill="#818286" width="1.024" height="3.253"/>
				<rect x="253.558" y="200.681" fill-rule="evenodd" clip-rule="evenodd" fill="#818286" width="1.023" height="3.253"/>
				<rect x="251.668" y="200.681" fill-rule="evenodd" clip-rule="evenodd" fill="#818286" width="1.023" height="3.253"/>
				<rect x="249.937" y="200.681" fill-rule="evenodd" clip-rule="evenodd" fill="#818286" width="1.025" height="3.253"/>
				<rect x="248.181" y="200.681" fill-rule="evenodd" clip-rule="evenodd" fill="#818286" width="1.026" height="3.253"/>
			</g>
		</g>
	</g>
	<g>
		<g>
			<rect x="245.847" y="226.705" fill-rule="evenodd" clip-rule="evenodd" fill="#D8BD76" width="28.298" height="24.008"/>
			<rect x="259.998" y="226.705" fill-rule="evenodd" clip-rule="evenodd" fill="#C4AA68" width="14.146" height="24.008"/>
			<rect x="245.148" y="226.33" fill-rule="evenodd" clip-rule="evenodd" fill="#E7D691" width="29.695" height="4.252"/>
			<rect x="259.998" y="226.33" fill-rule="evenodd" clip-rule="evenodd" fill="#D8BD76" width="14.846" height="4.252"/>
		</g>
		<g>
			<rect x="247.478" y="232.545" fill-rule="evenodd" clip-rule="evenodd" fill="#DFE9F2" width="9.639" height="4.371"/>
			<g>
				<rect x="255.387" y="233.104" fill-rule="evenodd" clip-rule="evenodd" fill="#818286" width="1.024" height="3.252"/>
				<rect x="253.558" y="233.104" fill-rule="evenodd" clip-rule="evenodd" fill="#818286" width="1.023" height="3.252"/>
				<rect x="251.668" y="233.104" fill-rule="evenodd" clip-rule="evenodd" fill="#818286" width="1.023" height="3.252"/>
				<rect x="249.937" y="233.104" fill-rule="evenodd" clip-rule="evenodd" fill="#818286" width="1.025" height="3.252"/>
				<rect x="248.181" y="233.104" fill-rule="evenodd" clip-rule="evenodd" fill="#818286" width="1.026" height="3.252"/>
			</g>
		</g>
	</g>
	<g>
		<g>
			<rect x="207.104" y="226.705" fill-rule="evenodd" clip-rule="evenodd" fill="#D8BD76" width="28.298" height="24.008"/>
			<rect x="221.255" y="226.705" fill-rule="evenodd" clip-rule="evenodd" fill="#C4AA68" width="14.146" height="24.008"/>
			<rect x="206.405" y="226.33" fill-rule="evenodd" clip-rule="evenodd" fill="#E7D691" width="29.693" height="4.252"/>
			<rect x="221.255" y="226.33" fill-rule="evenodd" clip-rule="evenodd" fill="#D8BD76" width="14.844" height="4.252"/>
		</g>
		<g>
			<rect x="208.731" y="232.545" fill-rule="evenodd" clip-rule="evenodd" fill="#DFE9F2" width="9.64" height="4.371"/>
			<g>
				<rect x="216.642" y="233.104" fill-rule="evenodd" clip-rule="evenodd" fill="#818286" width="1.023" height="3.252"/>
				<rect x="214.813" y="233.104" fill-rule="evenodd" clip-rule="evenodd" fill="#818286" width="1.024" height="3.252"/>
				<rect x="212.924" y="233.104" fill-rule="evenodd" clip-rule="evenodd" fill="#818286" width="1.024" height="3.252"/>
				<rect x="211.194" y="233.104" fill-rule="evenodd" clip-rule="evenodd" fill="#818286" width="1.022" height="3.252"/>
				<rect x="209.438" y="233.104" fill-rule="evenodd" clip-rule="evenodd" fill="#818286" width="1.023" height="3.252"/>
			</g>
		</g>
	</g>
	<g>
		<rect x="203.567" y="250.668" fill-rule="evenodd" clip-rule="evenodd" fill="#818286" width="74.056" height="5.271"/>
		<rect x="203.567" y="253.305" fill-rule="evenodd" clip-rule="evenodd" fill="#565759" width="74.056" height="2.634"/>
	</g>
	<g>
		<rect x="203.567" y="218.174" fill-rule="evenodd" clip-rule="evenodd" fill="#818286" width="74.056" height="5.271"/>
		<rect x="203.567" y="220.811" fill-rule="evenodd" clip-rule="evenodd" fill="#565759" width="74.056" height="2.635"/>
	</g>
	<g>
		<g>
			<rect x="198.764" y="190.556" fill-rule="evenodd" clip-rule="evenodd" fill="#818286" width="5.269" height="77.358"/>
			<rect x="201.398" y="190.556" fill-rule="evenodd" clip-rule="evenodd" fill="#565759" width="2.634" height="77.358"/>
		</g>
		<g>
			<rect x="277.156" y="190.556" fill-rule="evenodd" clip-rule="evenodd" fill="#818286" width="5.271" height="77.358"/>
			<rect x="279.793" y="190.556" fill-rule="evenodd" clip-rule="evenodd" fill="#565759" width="2.635" height="77.358"/>
		</g>
	</g>
	<g>
		<rect x="237.958" y="190.556" fill-rule="evenodd" clip-rule="evenodd" fill="#818286" width="5.272" height="77.358"/>
		<rect x="240.596" y="190.556" fill-rule="evenodd" clip-rule="evenodd" fill="#565759" width="2.635" height="77.358"/>
	</g>
</g>
</svg>
